<?xml version="1.0" encoding="UTF-8"?>
<svg version = "1.1"
     width = "30px"
     height = "34px"
     viewBox = "0 0 30.0 34.0"
     xmlns = "http://www.w3.org/2000/svg"
     xmlns:xlink = "http://www.w3.org/1999/xlink">
	<defs>
		<clipPath id = "i0">
			<path d = "M375,0 L375,812 L0,812 L0,0 L375,0 Z"></path>
		</clipPath>
		<clipPath id = "i1">
			<path d = "M8.1134759,18.9589818 C8.11988687,18.9770759 8.13179295,18.9987631 8.1374189,19.007746 C8.14278318,19.0187821 8.14801662,19.0298182 8.15364257,19.0405976 C8.19708013,19.1241384 8.24575114,19.2049842 8.29939392,19.2824936 C8.3098608,19.2976362 8.33485049,19.3294612 8.34413985,19.3416522 C8.35460673,19.3538433 8.36481194,19.3661627 8.3755405,19.378097 C8.42211813,19.4298127 8.47118164,19.4793469 8.52207686,19.5268278 C8.55387002,19.5565996 8.58657903,19.5852164 8.61981139,19.61332 C8.62988576,19.6217896 8.64951117,19.6374454 8.66442648,19.6491232 C8.72487273,19.6927543 8.78623483,19.7351021 8.84955948,19.7746268 C8.98523645,19.8590658 9.12680105,19.9343936 9.27137488,20.0029201 C9.30369138,20.0183193 9.33613872,20.0333335 9.36884773,20.0479628 C9.36897857,20.0480911 9.39514577,20.0596405 9.42039713,20.0708049 C9.44538681,20.0808144 9.5092348,20.1073781 9.50975815,20.1076347 C9.55123317,20.1238039 9.59296987,20.1397164 9.6348374,20.1551156 C9.92163001,20.2616268 10.2136561,20.3550487 10.5085605,20.4369212 C10.8059508,20.5195636 11.1068737,20.5898867 11.4101517,20.6482754 C11.5532863,20.6757373 11.6970751,20.7005044 11.8411256,20.7227049 C11.8964692,20.7311745 11.9525979,20.7419539 12.0084649,20.7476003 C12.0156609,20.7481136 12.0223335,20.7487552 12.0278286,20.7495252 C12.0679953,20.7544016 12.1081619,20.7591497 12.1483286,20.7636411 C12.7510903,20.831141 13.3589545,20.8525716 13.9652487,20.8312694 C14.2649941,20.8207466 14.5644778,20.799701 14.862784,20.7686459 L15.080626,20.7441355 C15.1067932,20.7409273 15.1329604,20.7375908 15.1591276,20.7342543 C15.1639686,20.7336127 15.1667161,20.7332277 15.1727346,20.7323294 C15.3337937,20.7088456 15.4947221,20.6840786 15.6549962,20.6557183 C16.2508236,20.5502337 16.8394549,20.4059944 17.4167035,20.226722 C17.438684,20.2197923 17.4605336,20.2120927 17.4825141,20.2051631 C17.4851308,19.9667319 17.4806824,19.7281725 17.4635428,19.489613 C17.4534685,19.3488385 17.4399923,19.2081924 17.4232453,19.0679312 C17.4207595,19.046629 17.4187969,19.0219903 17.4153952,18.9986348 C17.4140868,18.9926034 17.4130401,18.9867004 17.4122551,18.981824 C17.399564,18.8963584 17.3856954,18.8111494 17.3706492,18.7260687 C17.3198849,18.4399001 17.2553827,18.1561696 17.1776661,17.8760322 C17.0999495,17.5964082 17.0090184,17.320249 16.9048729,17.0488379 C16.8796216,16.9830063 16.8535852,16.9174313 16.8267638,16.852113 C16.8165586,16.8273459 16.8060917,16.8024505 16.795494,16.7776834 C16.793924,16.773962 16.7930081,16.7720371 16.7909147,16.767674 C16.7291601,16.6322892 16.6666205,16.4975461 16.5993708,16.3647279 C16.4687964,16.1070478 16.3256618,15.8556556 16.1697052,15.6120914 C16.094082,15.4940308 16.0155804,15.3777667 15.9340695,15.2635559 C15.8933795,15.2064505 15.8519045,15.1499867 15.8097753,15.0939079 C15.7877948,15.0646494 15.7667302,15.0316695 15.7417405,15.0045925 C15.7365071,14.9984328 15.731012,14.9918882 15.7252552,14.9848302 C15.3657177,14.5422312 14.9580326,14.1445465 14.5113584,13.7868998 L14.502069,13.7792002 C14.4918638,13.7707306 14.4851912,13.7666242 14.478911,13.763031 C14.4668741,13.7532782 14.454968,13.7430121 14.4443703,13.7351841 C14.3813074,13.6891148 14.3175902,13.6439438 14.253088,13.5999277 C14.130233,13.5158737 14.0046304,13.4356695 13.8765419,13.3594434 C13.7547335,13.2868104 13.6305701,13.2178989 13.5044442,13.1527089 C13.4298676,13.1140826 13.3546369,13.0768678 13.2786212,13.041193 C13.2422488,13.0239972 13.2056147,13.0071864 13.1689806,12.9907606 C13.163878,12.9884507 13.092834,12.9590638 13.0684985,12.9484127 C12.7295023,12.8177761 12.3878894,12.7280757 12.0304453,12.6589075 C12.0259969,12.6580093 12.0231185,12.6573676 12.0198476,12.656726 C12.0126516,12.6562127 12.0054557,12.6556994 11.9961663,12.6550577 C11.9563921,12.6519779 11.9167488,12.6476148 11.8768438,12.6447916 C11.7870903,12.6386319 11.6972059,12.6358087 11.6073216,12.6362628 C11.5173064,12.6368353 11.4271603,12.6406851 11.3374068,12.6485131 C11.3129405,12.6505663 11.2862499,12.6526195 11.2600827,12.6556994 C11.2370556,12.6604475 11.210365,12.6658372 11.1975431,12.6681471 C11.0469508,12.6962506 10.8983211,12.734877 10.7532239,12.7831278 C10.7210382,12.793779 10.6889834,12.8049434 10.6570594,12.8166211 C10.6552277,12.8172628 10.6221262,12.8302238 10.5954356,12.8404899 C10.5687451,12.8521676 10.5327652,12.8676952 10.5308026,12.8685935 C10.4844867,12.890024 10.438694,12.9124812 10.3932939,12.9357084 C10.2567011,13.0057748 10.1244259,13.0841824 9.99712241,13.1693914 C9.95211481,13.1994199 9.90828473,13.2311166 9.86445466,13.2629416 C9.84967019,13.2742344 9.83030645,13.2891203 9.8199704,13.2974615 L9.72145086,13.379719 C9.60435261,13.4801988 9.4928803,13.5868384 9.38703394,13.698611 C9.32815772,13.7607212 9.27124404,13.8244996 9.21603123,13.8896896 C9.19405078,13.9157399 9.17285534,13.9425602 9.15087488,13.9684822 C9.17579915,13.9390312 9.18769705,13.9251398 9.1913114,13.9211577 L9.18204657,13.9332886 C9.16562665,13.9536605 9.13504372,13.9910677 9.12824025,14.0003072 C8.92282766,14.2785197 8.74816154,14.578291 8.60018598,14.8893551 L8.54091725,15.0175535 L8.52962356,15.0440779 L8.527,15.048 L8.52322531,15.0598871 C8.52134273,15.0645924 8.51980904,15.0684778 8.51892044,15.070777 L8.49083976,15.1415492 L8.44619196,15.2567546 C8.38339066,15.4248627 8.32686949,15.5954089 8.27636678,15.7674951 C8.17483801,16.1128225 8.09607471,16.4641812 8.03392759,16.8182347 C8.02084398,16.8925359 8.00841456,16.9670938 7.99677015,17.0416516 C7.99650848,17.0433199 7.99153671,17.0761715 7.98721912,17.1042751 L7.98327769,17.1338383 L7.98041565,17.1556058 C7.96000523,17.3215323 7.94482824,17.4879721 7.93710892,17.6549252 C7.9297821,17.8126388 7.92899708,17.9706091 7.93684725,18.1283227 C7.94037982,18.1973625 7.9377631,18.2848813 7.95202423,18.357001 L7.947,18.32 L7.94920654,18.3315491 L7.95621098,18.3708603 C7.96497699,18.4215493 7.97374301,18.4722384 7.98434073,18.5225425 C8.01561054,18.6712732 8.06127232,18.8139726 8.11269089,18.9569286 L8.111,18.954 Z M2.447,32.671 L2.43795638,32.6734059 C2.42075583,32.675855 2.40713248,32.6779471 2.41939407,32.6763185 L2.48504019,32.6671037 C2.52690773,32.6612007 2.56877526,32.655041 2.6106428,32.6486246 C2.72551684,32.6311722 2.84012921,32.6119232 2.95461075,32.5917759 C3.66557381,32.4660157 4.37235011,32.3130502 5.07284628,32.1400657 C5.77412746,31.9669529 6.46939019,31.7699713 7.15497106,31.5445011 C7.48350036,31.43645 7.80967461,31.3218542 8.13310131,31.2002004 C8.29468382,31.1395019 8.45548132,31.0770067 8.6154938,31.012715 C8.65984722,30.9948776 8.70420063,30.9765269 8.74855405,30.9586895 C8.76399271,30.9524014 8.770142,30.9498349 8.77799216,30.9463701 C8.86604482,30.909027 8.95409748,30.8718122 9.04175762,30.8335709 C10.3311468,30.2718846 11.5576039,29.580075 12.6830555,28.7446678 C12.6905132,28.7390214 12.6975783,28.73376 12.7024193,28.7300385 L12.804733,28.6506042 C12.8591608,28.6079997 12.9131961,28.5650103 12.9669697,28.5216358 C13.1017309,28.4129431 13.2343986,28.3020687 13.364973,28.1887562 C13.6070197,27.9789419 13.8420012,27.7612997 14.0693942,27.5360863 C14.2966564,27.3108728 14.5163301,27.0782164 14.7276304,26.8382453 C14.8302058,26.7215963 14.9309496,26.6034073 15.0294691,26.4834218 C15.0678041,26.4367109 15.1054848,26.3897433 15.1432965,26.3426473 C15.1529783,26.3305846 15.1630527,26.3178803 15.1689403,26.3101807 C15.2006026,26.2693727 15.2320033,26.2284365 15.2631423,26.1872436 C15.6509403,25.6741932 16.0009267,25.1334242 16.3048588,24.5685298 C16.4502177,24.2985303 16.5826238,24.0230127 16.707703,23.743517 C16.7104506,23.7369723 16.7109739,23.7355607 16.7120206,23.7331225 L16.7606916,23.6155752 C16.7862046,23.5526951 16.8111943,23.4896867 16.8355298,23.4264216 C16.8964994,23.268323 16.9536748,23.1089411 17.006925,22.948276 C17.1055754,22.6509429 17.1907497,22.3495033 17.2617937,22.0447273 C17.2963344,21.8961249 17.3276042,21.7468808 17.3552106,21.5969952 C17.3562573,21.5912205 17.3571731,21.5854458 17.3582198,21.5797994 C15.4259023,22.1182585 13.3887851,22.2673742 11.3973297,21.9450174 C10.7704943,21.8435109 10.1521631,21.6905454 9.55188735,21.4865058 C8.83896176,21.2442249 8.12669034,20.9389355 7.57796398,20.4162606 C6.40541137,19.2993044 6.53663992,17.581779 6.83638529,16.1427226 C7.13351395,14.7154723 7.77133965,13.2732078 8.95514416,12.3420688 C9.53422449,11.8865087 10.2101235,11.5289904 10.9506555,11.4136246 C11.7895762,11.2829879 12.6362162,11.4014336 13.4222792,11.7123693 C15.9188925,12.6995871 17.6771981,14.9181003 18.4070015,17.4216272 C18.6291611,18.1832465 18.7462594,18.9573136 18.7729499,19.7309957 C18.7781834,19.7288141 18.782501,19.7268892 18.7851177,19.7257343 C18.8607409,19.6930109 18.9361025,19.659646 19.0110715,19.6257677 C19.5676481,19.3741189 20.1087859,19.0900035 20.6310834,18.7758595 C20.8998207,18.6142961 21.1634553,18.4447765 21.4217256,18.2676855 C21.5440573,18.1837598 21.6652115,18.0981659 21.7850573,18.0109037 C21.8383076,17.9720207 21.8911653,17.9327527 21.9440231,17.8934847 L22.0472527,17.8140504 C22.5334395,17.4358714 22.9965991,17.0290756 23.4325448,16.5958444 C23.6468542,16.382822 23.8546218,16.1633832 24.0551935,15.9379131 C24.1556756,15.8249855 24.2543259,15.7103897 24.3512755,15.5945107 C24.402694,15.5330421 24.4535892,15.471317 24.504092,15.4090785 C24.5322217,15.3745586 24.5598281,15.339782 24.587827,15.3053904 C24.5960697,15.2952526 24.6003873,15.2898629 24.6048357,15.2846015 C24.6088916,15.2792118 24.6115083,15.2758753 24.6176576,15.267919 C25.0181468,14.7496072 25.3918145,14.2128164 25.7329041,13.6551082 C26.0733394,13.0986834 26.3827667,12.5244211 26.6619708,11.9362995 C26.7300055,11.7930868 26.7962086,11.6489759 26.8605799,11.5042233 C26.8749719,11.4720133 26.889233,11.4398033 26.9033633,11.4075932 C26.9034941,11.4070799 26.9316239,11.3417616 26.9415674,11.3189194 C26.9461467,11.3080117 26.9503334,11.2982588 26.9521651,11.2937674 C26.9727064,11.2450032 26.992986,11.1961107 27.0131347,11.1473466 C27.1375598,10.8453937 27.2543964,10.5406176 27.364037,10.233275 C27.8083562,8.98812038 28.1336146,7.70305613 28.3538117,6.40195104 C28.3806331,6.24398079 28.4057536,6.08575389 28.4294349,5.92727033 C28.4383317,5.86734173 28.4480136,5.80715648 28.4561254,5.7468429 C28.457303,5.73824501 28.458873,5.72515568 28.4620131,5.70115857 C28.4690782,5.64815962 28.4760125,5.59516066 28.4826852,5.54216171 C28.5253377,5.20620223 28.5611868,4.8694728 28.5904941,4.53223005 C28.6476694,3.87558199 28.6801168,3.21700902 28.6892753,2.55805107 C28.6980413,1.9191121 28.6843035,1.28017313 28.6505478,0.642132446 C28.6327541,0.306429624 28.9641618,-0.014387293 29.304728,0.000498611991 C29.6743398,0.0167961114 29.9398062,0.282560845 29.9589082,0.642132446 C30.1064913,3.42746492 29.8623512,6.25463192 29.1321553,8.95424211 C28.3985576,11.6663 27.1493351,14.2355302 25.3447135,16.4197801 C23.6760306,18.4393867 21.4786393,20.0021501 19.0390705,21.0041255 C18.9338783,21.0473716 18.8275086,21.0877946 18.7214005,21.1287308 C18.5732941,22.5124783 18.1444136,23.8700472 17.4826449,25.1259813 C16.1755928,27.606666 14.040087,29.6002223 11.5956772,30.9956476 C10.2873167,31.7426377 8.88318434,32.3314009 7.44804379,32.7997936 C6.02847273,33.2631815 4.56023066,33.6269879 3.08374592,33.8663173 C2.21460209,34.0073485 1.35095338,34.0698436 0.482594566,33.886593 C0.147654297,33.8158849 -0.0788228924,33.4139655 0.0257151055,33.097255 C0.13993497,32.7510294 0.471604338,32.5732968 0.830487602,32.649138 L0.98461246,32.6796797 C1.00005111,32.6823746 1.04257283,32.6891759 1.06455328,32.6930257 C1.13520475,32.7014953 1.20598704,32.7084249 1.27690018,32.7133013 C1.48558367,32.7275456 1.69518301,32.7278023 1.90412817,32.7180494 C2.09357876,32.7091949 2.28224433,32.6912291 2.47051739,32.6690286 L2.447,32.671 Z"></path>
		</clipPath>
	</defs>
	<g transform = "translate(-310.0 -65.0)">
		<g clip-path = "url(#i0)">
			<g transform = "translate(310.0 65.0)">
				<g clip-path = "url(#i1)">
					<polygon points = "0,-1.08420217e-19 30,-1.08420217e-19 30,34 0,34 0,-1.08420217e-19"
					         stroke = "none"
					         fill = "#000000"></polygon>
				</g>
			</g>
		</g>
	</g>
</svg>