<?xml version="1.0" encoding="UTF-8"?>
<svg version = "1.1"
     width = "23px"
     height = "26px"
     viewBox = "0 0 23.0 26.0"
     xmlns = "http://www.w3.org/2000/svg"
     xmlns:xlink = "http://www.w3.org/1999/xlink">
	<defs>
		<clipPath id = "i0">
			<path d = "M375,0 L375,812 L0,812 L0,0 L375,0 Z"></path>
		</clipPath>
		<clipPath id = "i1">
			<path d = "M4.12505036,0 L9.18042034,2.89012522 C10.1547589,3.4472681 10.1547589,4.85490369 9.18042034,5.4120332 L4.12082315,8.30453686 L0,4.16071991 L4.12505036,0 Z"></path>
		</clipPath>
		<clipPath id = "i2">
			<path d = "M1.76909412,0.192865078 L16.2162316,8.45198443 L12.0911946,12.6127043 L0,0.45349132 C0.433869117,-0.000804071666 1.14984117,-0.161081528 1.76909412,0.192865078 Z"></path>
		</clipPath>
		<clipPath id = "i3">
			<path d = "M12.0636444,0 L16.1844675,4.14381695 L1.74155725,12.4005579 C1.13534597,12.7471153 0.436376105,12.6008279 0,12.1679251 L12.0636444,0 Z"></path>
		</clipPath>
		<clipPath id = "i4">
			<path d = "M0.397637792,0 L12.4888324,12.159213 L0.425174665,24.3271381 C0.166408062,24.0707476 0,23.7136208 0,23.2988102 L0,1.00033443 C0,0.600569448 0.154553204,0.25426592 0.397637792,0 Z"></path>
		</clipPath>
	</defs>
	<g transform = "translate(-106.0 -523.0)">
		<g clip-path = "url(#i0)">
			<g transform = "translate(80.0 430.9999999999999)">
				<g transform = "translate(26.40000000000009 83.39599236641209)">
					<g transform = "translate(0.0 8.627974163241674)">
						<g transform = "translate(12.4888283731716 8.451983091366856)">
							<g clip-path = "url(#i1)">
								<polygon points = "0,0 9.91117429,0 9.91117429,8.30453686 0,8.30453686 0,0"
								         stroke = "none"
								         fill = "#FFCE00"></polygon>
							</g>
						</g>
						<g transform = "translate(0.39764045853507923 0.0)">
							<g clip-path = "url(#i2)">
								<polygon points = "0,2.77555756e-16 16.2162316,2.77555756e-16 16.2162316,12.6127043 0,12.6127043 0,2.77555756e-16"
								         stroke = "none"
								         fill = "#00E363"></polygon>
							</g>
						</g>
						<g transform = "translate(0.4251853333521467 12.61269899342392)">
							<g clip-path = "url(#i3)">
								<polygon points = "0,0 16.1844675,0 16.1844675,12.5934549 0,12.5934549 0,0"
								         stroke = "none"
								         fill = "#E94335"></polygon>
							</g>
						</g>
						<g transform = "translate(0.0 0.4534899838107549)">
							<g clip-path = "url(#i4)">
								<polygon points = "0,0 12.4888324,0 12.4888324,24.3271381 0,24.3271381 0,0"
								         stroke = "none"
								         fill = "#01D0FF"></polygon>
							</g>
						</g>
					</g>
				</g>
			</g>
		</g>
	</g>
</svg>