<?xml version="1.0" encoding="UTF-8"?>
<svg width = "23px"
     height = "26px"
     viewBox = "0 0 23 26"
     version = "1.1"
     xmlns = "http://www.w3.org/2000/svg"
     xmlns:xlink = "http://www.w3.org/1999/xlink">
	<title>编组</title>
	<defs>
		<polygon id = "path-1"
		         points = "0 0 9.91117163 0 9.91117163 8.30453686 0 8.30453686"></polygon>
	</defs>
	<g id = "light"
	   stroke = "none"
	   stroke-width = "1"
	   fill = "none"
	   fill-rule = "evenodd">
		<g id = "01-本人视角-card分享-app下载"
		   transform = "translate(-106.000000, -544.000000)">
			<g id = "编组-6"
			   transform = "translate(80.000000, 151.000000)">
				<g id = "编组-4"
				   transform = "translate(0.000000, 301.000000)">
					<g id = "编组-2"
					   transform = "translate(26.400000, 83.395992)">
						<g id = "编组"
						   transform = "translate(0.000000, 8.627974)">
							<g transform = "translate(12.488828, 8.451983)">
								<mask id = "mask-2"
								      fill = "white">
									<use xlink:href = "#path-1"></use>
								</mask>
								<g id = "Clip-2"></g>
								<path d = "M9.18042034,2.89012522 C10.1547589,3.4472681 10.1547589,4.85490369 9.18042034,5.4120332 L4.12082315,8.30453686 L0,4.16071991 L4.12505036,0 L9.18042034,2.89012522 Z"
								      id = "Fill-1"
								      fill = "#FFCE00"
								      mask = "url(#mask-2)"></path>
							</g>
							<path d = "M16.6138721,8.45198443 L12.488835,12.6127043 L0.397640459,0.45349132 C0.831509575,-0.000804071666 1.54748163,-0.161081528 2.16673458,0.192865078 L16.6138721,8.45198443 Z"
							      id = "Fill-3"
							      fill = "#00E464"></path>
							<path d = "M12.4888297,12.612699 L16.6096529,16.7565159 L2.16674258,25.0132569 C1.56053131,25.3598143 0.861561439,25.2135268 0.425185333,24.7806241 L12.4888297,12.612699 Z"
							      id = "Fill-5"
							      fill = "#E94335"></path>
							<path d = "M0,1.45382441 C0,1.05405943 0.154553204,0.707755904 0.397637792,0.453489984 L12.4888324,12.612703 L0.425174665,24.7806281 C0.166408062,24.5242376 0,24.1671108 0,23.7523002 L0,1.45382441 Z"
							      id = "Fill-7"
							      fill = "#01D0FF"></path>
						</g>
					</g>
				</g>
			</g>
		</g>
	</g>
</svg>