<?xml version="1.0" encoding="UTF-8"?>
<svg width = "24px"
     height = "27px"
     viewBox = "0 0 24 27"
     version = "1.1"
     xmlns = "http://www.w3.org/2000/svg"
     xmlns:xlink = "http://www.w3.org/1999/xlink">
	<title>编组</title>
	<g id = "light"
	   stroke = "none"
	   stroke-width = "1"
	   fill = "none"
	   fill-rule = "evenodd">
		<g id = "01-本人视角-card分享-app下载"
		   transform = "translate(-116.000000, -467.000000)"
		   fill = "#FFFFFF">
			<g id = "编组-6"
			   transform = "translate(80.000000, 151.000000)">
				<g id = "编组-4"
				   transform = "translate(0.000000, 301.000000)">
					<g id = "编组-3"
					   transform = "translate(36.800000, 7.250954)">
						<g id = "编组"
						   transform = "translate(0.000000, 8.627974)">
							<path d = "M20.3657362,7.43447144 C20.7995505,7.75373493 21.1830675,8.12307896 21.5257179,8.53311344 C21.6640355,8.69274518 21.6577483,8.72717556 21.4785642,8.84298682 C19.8627632,9.81955749 18.9165451,11.2531131 18.7562224,13.1342637 C18.5958997,14.8870828 19.1365958,16.4207996 20.3563055,17.7009835 C20.8907144,18.2549996 21.5194307,18.6712941 22.223593,18.9749075 C22.4279258,19.0531583 22.434213,19.0844587 22.3461927,19.2753907 C21.5571537,21.0970706 20.5040538,22.7747689 19.202611,24.2771854 C18.7562224,24.7811209 18.240675,25.2412359 17.6371073,25.5761495 C16.6877456,26.1019953 15.7132353,26.1051253 14.7261506,25.6888308 C14.317485,25.5198089 13.9276809,25.3100966 13.5127281,25.1692451 C12.1484136,24.7404304 10.8029606,24.796771 9.48579987,25.3382669 L8.79700619,25.6308672 C8.68174152,25.6783973 8.56577829,25.7243045 8.4484179,25.7670816 C7.1752673,26.2397168 6.02785997,25.9486236 4.98419084,25.1254246 C4.34604375,24.6246191 3.82420918,24.0205226 3.34324118,23.3726055 C2.23984399,21.8889693 1.36907185,20.2738716 0.78122207,18.5210525 C0.359982118,17.2690388 0.0896340896,15.9825948 0.0236188733,14.6617204 C-0.0581142516,13.2093845 0.0550546906,11.7789589 0.63661731,10.4330442 C1.55768676,8.32966122 3.11375971,6.8992356 5.34884632,6.25131852 C5.78580418,6.12298712 6.23219278,6.06664651 6.65343274,6.08542671 C7.55564069,6.07603661 8.3635412,6.30765914 9.16201095,6.58936221 C9.64926612,6.75525403 10.1333777,6.93992604 10.6332072,7.06199738 C11.5354152,7.2842298 12.4061873,7.20597895 13.2675287,6.87419532 C13.8805271,6.63631273 14.4935256,6.3953001 15.1379598,6.25131852 C17.0712626,5.8099837 18.8065197,6.24505845 20.3657362,7.43447144 Z M16.1787997,0.182495255 C16.1913741,0.338996964 16.2165227,0.511148844 16.2008048,0.589399698 C16.1913741,1.83202327 15.8047135,2.87745468 15.1665664,3.83211511 C14.4372555,4.90884686 13.456458,5.65692503 12.2147432,6.06069944 C11.8343698,6.18277077 11.4477092,6.25163153 11.0453308,6.25163153 C10.8912953,6.25163153 10.8284236,6.18903084 10.8158493,6.03252913 C10.7121111,5.12481922 10.9164439,4.28284003 11.2999609,3.47842124 C12.0607077,1.87584375 13.3149968,0.836672398 14.9653772,0.23883587 C15.2985968,0.12615464 15.6412473,0.0635539565 15.9933284,0.00408330709 C16.1379332,-0.0209569663 16.169369,0.072944059 16.1787997,0.182495255 Z"
							      id = "形状结合"></path>
						</g>
					</g>
				</g>
			</g>
		</g>
	</g>
</svg>