<?xml version="1.0" encoding="UTF-8"?>
<svg width = "16px"
     height = "16px"
     viewBox = "0 0 16 16"
     version = "1.1"
     xmlns = "http://www.w3.org/2000/svg"
     xmlns:xlink = "http://www.w3.org/1999/xlink">
	<title>画板</title>
	<g id = "画板"
	   stroke = "none"
	   stroke-width = "1"
	   fill = "none"
	   fill-rule = "evenodd">
		<g id = "编组"
		   transform = "translate(0.500000, 0.000000)">
			<path d = "M0.0169978927,11.6334474 C0.00217825319,11.5624188 -0.00353047953,11.4895703 0.00217825319,11.415357 L0.00217825319,11.415357 L0.269969715,7.998985 L0.504053706,5.01138692 C0.563216936,4.25594646 1.02873814,3.59032973 1.72312763,3.26635018 L1.72312763,3.26635018 L8.57282843,0.0756890945 C8.76822278,-0.0149023416 8.98152179,-0.0202764099 9.17535922,0.0388383408 L9.17535922,0.0388383408 L9.166,0.076 L9.17520353,0.0393757476 C9.31283588,0.0805257559 9.4405039,0.154104427 9.54226466,0.260504837 L9.61347851,0.346465362 L10.8162047,2.02931645 L14.8494244,7.67132038 C14.9202645,7.77035678 14.96308,7.88167676 14.984877,7.99913854 C15.0041829,8.10454705 15.0065183,8.21356386 14.9831644,8.31950978 L14.9831644,8.31950978 L14.0124203,12.7485097 C13.9236755,13.1554035 13.7251673,13.5216078 13.4558189,13.8286975 L13.4558189,13.8286975 L9.2910389,10.9251652 L8.157,7.999 L9.29064967,10.925549 L13.4562081,13.8290813 C13.2288968,14.088572 12.9517638,14.3073734 12.6271445,14.4555441 L12.6271445,14.4555441 L9.41442538,15.9234325 C9.30310509,15.9756377 9.18088631,16.0009726 9.05788907,16.0002218 L9.05788907,16.0002218 L3.7837985,15.9679605 C3.53157631,15.966425 3.292588,15.8520342 3.1345599,15.6570322 L3.1345599,15.6570322 L0.181069178,11.9919177 C0.12034902,11.9166807 0.0767550615,11.8291602 0.0456165194,11.7385688 L0.0456165194,11.7385688 Z"
			      id = "形状结合"
			      fill = "#FEA72B"></path>
			<polygon id = "Fill-1"
			         fill = "#FEA72B"
			         points = "5.65234456 7.998985 8.15744028 7.998985 7.64287587 6.67159014"></polygon>
			<path d = "M7.64256448,6.67120628 L9.17535922,0.0388383408 C8.98152179,-0.0202764099 8.76822278,-0.0149023416 8.57282843,0.0756890945 L1.72312763,3.26635018 C1.02873814,3.59032973 0.563216936,4.25594646 0.504053706,5.01138692 L0.269736176,7.99860114 L5.65203318,7.99860114 L7.64256448,6.67120628 Z"
			      id = "Fill-2"
			      fill = "#FFD15E"></path>
			<path d = "M14.8494244,7.67132038 L10.8162047,2.02931645 L9.61347851,0.346465362 C9.50371515,0.192920555 9.34724397,0.090813258 9.17520353,0.0393757476 L7.64240879,6.67097596 L8.1569732,7.99913854 L14.984877,7.99913854 C14.96308,7.88167676 14.9202645,7.77035678 14.8494244,7.67132038"
			      id = "Fill-4"
			      fill = "#FFEE6E"></path>
			<path d = "M8.15720674,7.998985 L5.65211103,7.998985 L0.0456165194,11.7385688 C0.0767550615,11.8291602 0.12034902,11.9166807 0.181069178,11.9919177 L3.1345599,15.6570322 C3.292588,15.8520342 3.53157631,15.966425 3.7837985,15.9679605 L9.05788907,16.0002218 C9.18088631,16.0009726 9.30310509,15.9756377 9.41442538,15.9234325 L12.6271445,14.4555441 C12.9517638,14.3073734 13.2288968,14.088572 13.4562081,13.8290813 L9.29064967,10.925549 L8.15720674,7.998985 Z"
			      id = "Fill-6"
			      fill = "#EA9126"></path>
			<path d = "M14.0124203,12.7485097 L14.9831644,8.31950978 C15.0065183,8.21356386 15.0041829,8.10454705 14.9847213,7.99860114 L8.15759597,7.99860114 L9.2910389,10.9251652 L13.4558189,13.8286975 C13.7251673,13.5216078 13.9236755,13.1554035 14.0124203,12.7485097"
			      id = "Fill-8"
			      fill = "#FFD15E"></path>
			<path d = "M0.269969715,7.998985 L0.00217825319,11.415357 C-0.00638484589,11.5266769 0.0107413523,11.634926 0.0457722121,11.7385688 L5.65226672,7.998985 L0.269969715,7.998985 Z"
			      id = "Fill-10"
			      fill = "#FEA72B"></path>
		</g>
	</g>
</svg>