<?xml version="1.0" encoding="UTF-8"?>
<svg width = "65px"
     height = "59px"
     viewBox = "0 0 65 59"
     version = "1.1"
     xmlns = "http://www.w3.org/2000/svg"
     xmlns:xlink = "http://www.w3.org/1999/xlink">
	<title>Fill 1</title>
	<g id = "light"
	   stroke = "none"
	   stroke-width = "1"
	   fill = "none"
	   fill-rule = "evenodd">
		<g id = "03-5报错"
		   transform = "translate(-156.000000, -346.000000)"
		   fill = "#C4C4C4">
			<g id = "编组"
			   transform = "translate(63.000000, 346.000000)">
				<path d = "M141.511992,20.3461999 C142.221659,21.0522414 142.221659,22.1970302 141.511992,22.9034033 C140.802325,23.6094448 139.651657,23.6094448 138.941657,22.9034033 L136.999989,20.9713235 L135.058322,22.9034033 C134.348655,23.6094448 133.197654,23.6094448 132.487987,22.9034033 C131.77832,22.1970302 131.77832,21.0522414 132.487987,20.3461999 L134.429988,18.4144517 L132.487987,16.4823719 C131.77832,15.7763303 131.77832,14.6315416 132.487987,13.9255 L132.487987,13.9255 C133.197654,13.2194585 134.348655,13.2194585 135.058322,13.9255 L136.999989,15.8572482 L138.941657,13.9255 C139.651657,13.2194585 140.802325,13.2194585 141.511992,13.9255 L141.511992,13.9255 C142.221659,14.6315416 142.221659,15.7763303 141.511992,16.4823719 L139.570324,18.4144517 L141.511992,20.3461999 Z M125.499983,46.6640717 C120.272647,46.6640717 116.067978,42.7193259 116.067978,36.2027848 C116.067978,29.6885652 120.272647,25.7438193 125.499983,25.7438193 C130.726319,25.7438193 134.931988,29.6885652 134.931988,36.2027848 C134.931988,42.7193259 130.726319,46.6640717 125.499983,46.6640717 L125.499983,46.6640717 Z M113.999977,20.9713235 L112.05831,22.9034033 C111.348643,23.6094448 110.197642,23.6094448 109.487975,22.9034033 C108.778308,22.1970302 108.778308,21.0522414 109.487975,20.3461999 L111.429976,18.4144517 L109.487975,16.4823719 C108.778308,15.7763303 108.778308,14.6315416 109.487975,13.9255 L109.487975,13.9255 C110.197642,13.2194585 111.348643,13.2194585 112.05831,13.9255 L113.999977,15.8572482 L115.941645,13.9255 C116.651645,13.2194585 117.802313,13.2194585 118.51198,13.9255 L118.51198,13.9255 C119.221647,14.6315416 119.221647,15.7763303 118.51198,16.4823719 L116.570312,18.4144517 L118.51198,20.3461999 C119.221647,21.0522414 119.221647,22.1970302 118.51198,22.9034033 C117.802313,23.6094448 116.651645,23.6094448 115.941645,22.9034033 L113.999977,20.9713235 Z M125.50065,0 C107.02964,0 93.4999667,12.4135962 93.4999667,29.4985408 C93.4999667,46.5864701 107.02964,59.0000663 125.50065,59.0000663 C143.971993,59.0000663 157.5,46.5864701 157.5,29.4985408 C157.5,12.4135962 143.971993,0 125.50065,0 L125.50065,0 Z"
				      id = "Fill-1"></path>
			</g>
		</g>
	</g>
</svg>