<?xml version="1.0" encoding="UTF-8"?>
<svg width = "64px"
     height = "59px"
     viewBox = "0 0 64 59"
     version = "1.1"
     xmlns = "http://www.w3.org/2000/svg"
     xmlns:xlink = "http://www.w3.org/1999/xlink">
	<title>Fill 1</title>
	<g id = "light"
	   stroke = "none"
	   stroke-width = "1"
	   fill = "none"
	   fill-rule = "evenodd">
		<g id = "03-6--列表为空"
		   transform = "translate(-156.000000, -346.000000)"
		   fill = "#C4C4C4">
			<path d = "M200.29757,365.627068 C200.29757,367.315843 198.920859,368.685499 197.223383,368.685499 C195.525907,368.685499 194.149195,367.315843 194.149195,365.627068 L194.149195,362.568637 C194.149195,360.879861 195.525907,359.510206 197.223383,359.510206 C198.920859,359.510206 200.29757,360.879861 200.29757,362.568637 L200.29757,365.627068 Z M188.000819,392.663785 C182.772593,392.663785 178.567535,388.720202 178.567535,382.202693 C178.567535,375.689842 182.772593,371.74393 188.000819,371.74393 C193.226705,371.74393 197.431763,375.689842 197.431763,382.202693 C197.431763,388.720202 193.226705,392.663785 188.000819,392.663785 L188.000819,392.663785 Z M175.704068,365.627068 L175.704068,362.568637 C175.704068,360.879861 177.078439,359.510206 178.778256,359.510206 C180.475732,359.510206 181.852444,360.879861 181.852444,362.568637 L181.852444,365.627068 C181.852444,367.315843 180.475732,368.685499 178.778256,368.685499 C177.078439,368.685499 175.704068,367.315843 175.704068,365.627068 L175.704068,365.627068 Z M188.000819,346 C169.529938,346 155.999298,358.413084 155.999298,375.498835 C155.999298,392.586916 169.529938,405 188.000819,405 C206.471701,405 220,392.586916 220,375.498835 C220,358.413084 206.471701,346 188.000819,346 L188.000819,346 Z"
			      id = "Fill-1"></path>
		</g>
	</g>
</svg>