<?xml version="1.0" encoding="UTF-8"?>
<svg width = "64px"
     height = "17px"
     viewBox = "0 0 64 17"
     version = "1.1"
     xmlns = "http://www.w3.org/2000/svg"
     xmlns:xlink = "http://www.w3.org/1999/xlink">
	<title>形状结合</title>
	<g id = "注册&amp;登录"
	   stroke = "none"
	   stroke-width = "1"
	   fill = "none"
	   fill-rule = "evenodd">
		<g id = "启动登录_默认"
		   transform = "translate(-195.000000, -733.000000)"
		   fill = "#C4C4C4">
			<g id = "编组-2"
			   transform = "translate(115.000000, 729.000000)">
				<path d = "M82.1595456,4 C82.6893267,4.00302222 83.1906631,4.24234444 83.5293787,4.65355556 L83.5293787,4.65355556 L94.008976,17.3091111 C94.0353621,17.3402778 94.0737249,17.3584111 94.1143334,17.3587889 C94.1918075,17.3595444 94.2552465,17.2968333 94.2559951,17.2186333 L94.2559951,17.2186333 L94.2559951,7.71922222 C94.2565565,7.68333333 94.2436441,7.64857778 94.2195036,7.62194444 C94.1678542,7.56508889 94.0802747,7.56131111 94.0239468,7.61344444 L94.0239468,7.61344444 L90.5581943,10.6356667 C90.4258894,10.7675111 90.2176074,10.7813 90.0693959,10.6681556 C89.9047165,10.5421667 89.8719678,10.3053 89.9967873,10.1388889 L89.9967873,10.1388889 L93.5186805,4.86322222 C93.8450451,4.32696667 94.4238557,4.00018889 95.0475789,4 L95.0475789,4 L95.0588071,4 C96.0498775,4 96.8534381,4.81108889 96.8534381,5.81144444 L96.8534381,5.81144444 L96.8534381,19.1868556 C96.8534381,20.1870222 96.0498775,20.9981111 95.0588071,20.9981111 L95.0588071,20.9981111 L94.6845357,20.9981111 C94.1558775,20.9983 93.6539796,20.7635111 93.3128313,20.3558889 L93.3128313,20.3558889 L82.833234,7.70033333 C82.8068479,7.66916667 82.768485,7.65122222 82.7278766,7.65084444 C82.6504024,7.6499 82.5869634,7.7128 82.5862149,7.791 L82.5862149,7.791 L82.5862149,17.2807778 C82.5854664,17.3166667 82.5985659,17.3516111 82.6225192,17.3780556 C82.6741687,17.4349111 82.7619353,17.4388778 82.8182631,17.3865556 L82.8182631,17.3865556 L86.2840157,14.3643333 C86.4163206,14.2324889 86.6244154,14.2187 86.7726269,14.3318444 C86.9374934,14.4578333 86.970055,14.6947 86.8454227,14.8611111 L86.8454227,14.8611111 L83.3235294,20.1367778 C82.9969777,20.6732222 82.4181671,21 81.794631,21 C80.8033734,21 80,20.1889111 80,19.1885556 L80,19.1885556 L80,5.81144444 C80,4.81108889 80.8033734,4 81.794631,4 L81.794631,4 Z M140.235153,7.40003778 C142.430442,7.40003778 143.670964,8.71092667 143.670964,10.6357044 C143.670964,12.3111489 142.733602,13.4029267 141.129662,13.7089267 L141.129662,13.7089267 L143.970381,17.3714822 C143.987972,17.3941489 143.998264,17.4219156 143.999762,17.4508156 C144.004253,17.5288267 143.944744,17.5956933 143.867457,17.6000378 L143.867457,17.6000378 L142.841953,17.6000378 C142.402184,17.6024933 141.986743,17.3969822 141.719139,17.0447044 L141.719139,17.0447044 L139.254562,13.7977044 L137.695722,13.7977044 L137.695722,17.4715933 C137.694787,17.5494156 137.632471,17.6121267 137.555371,17.61326 L137.555371,17.61326 L136.204251,17.61326 C136.126777,17.61326 136.063899,17.5497933 136.063899,17.4715933 L136.063899,17.4715933 L136.063899,12.5604822 C136.063899,12.4433711 136.157467,12.3479822 136.273491,12.3470378 L136.273491,12.3470378 L140.070474,12.3470378 C141.412237,12.3470378 142.033527,11.6368156 142.033527,10.6470378 C142.033527,9.65726 141.397266,8.97159333 140.070474,8.97159333 L140.070474,8.97159333 L137.411276,8.97159333 C136.667225,8.97159333 136.063899,8.36280444 136.063899,7.61159333 C136.063899,7.49467111 136.157841,7.40003778 136.273491,7.40003778 L136.273491,7.40003778 Z M104.744912,7.40003778 C105.220798,7.40022667 105.664496,7.64332667 105.923866,8.04603778 L110.561088,15.2691489 L110.416994,11.6689267 L110.416994,7.54170444 C110.416994,7.46350444 110.479871,7.40003778 110.557346,7.40003778 L111.908465,7.40003778 C111.981822,7.40589333 112.038711,7.46728222 112.03946,7.54170444 L112.03946,17.4583711 C112.038524,17.5361933 111.976208,17.5989044 111.899108,17.6000382 L110.877347,17.6000382 C110.4009,17.6004156 109.956827,17.3563711 109.698393,16.9521489 L105.061171,9.71770444 L105.220236,13.3311489 L105.220236,17.4583711 C105.219301,17.5361933 105.156984,17.5989044 105.079885,17.6000382 L103.728765,17.6000382 C103.651665,17.5989044 103.589349,17.5361933 103.588413,17.4583711 L103.588413,7.54170444 C103.589349,7.46388222 103.651665,7.40098222 103.728765,7.40003778 L104.744912,7.40003778 Z M130.071853,7.40003778 C130.158684,7.40079333 130.236345,7.45462667 130.268345,7.53603778 L134.044743,17.4111489 C134.070568,17.4850044 134.032205,17.5658489 133.959222,17.5919156 C133.944625,17.5970156 133.92928,17.5998489 133.913748,17.6000636 L132.484032,17.6000636 C132.425458,17.6002267 132.372686,17.5643378 132.351165,17.5093711 L129.298982,9.38714889 C129.272596,9.31367111 129.191941,9.27570444 129.119145,9.30233778 C129.080221,9.31650444 129.049156,9.34767111 129.035121,9.38714889 L125.982938,17.5093711 C125.961231,17.5649044 125.907336,17.6011711 125.848201,17.6000636 L124.418484,17.6000636 C124.340823,17.5992822 124.278694,17.5352489 124.279436,17.4570489 C124.27963,17.4413711 124.282437,17.4258822 124.287489,17.4111489 L128.075115,7.53603778 C128.108238,7.45122667 128.190765,7.39682667 128.280964,7.40003778 L130.071853,7.40003778 Z M121.222188,11.6027967 C121.299663,11.6027967 121.36254,11.6662633 121.36254,11.7444633 L121.36254,11.7444633 L121.36254,13.0440189 C121.36254,13.1222189 121.299663,13.1856856 121.222188,13.1856856 L121.222188,13.1856856 L116.897483,13.1856856 C116.820009,13.1856856 116.757131,13.2491522 116.757131,13.3273522 L116.757131,13.3273522 L116.757131,15.8849078 C116.758254,15.96273 116.820383,16.02563 116.897483,16.0265744 L116.897483,16.0265744 L121.575875,16.0265744 C121.650916,16.0254411 121.713045,16.08513 121.716227,16.1606856 L121.716227,16.1606856 L121.716227,17.4507967 C121.716227,17.5289967 121.653349,17.5924633 121.575875,17.5924633 L121.575875,17.5924633 L115.329286,17.5924633 C115.213636,17.5924633 115.119694,17.49783 115.119694,17.3809078 L115.119694,17.3809078 L115.119694,11.8162411 C115.119694,11.69913 115.213262,11.6037411 115.329286,11.6027967 L115.329286,11.6027967 Z M121.575875,7.40001889 C121.653349,7.40001889 121.716227,7.46348556 121.716227,7.54168556 L121.716227,7.54168556 L121.716227,8.83557444 C121.715104,8.91283 121.652413,8.97459667 121.575875,8.97347868 L121.575875,8.97347868 L116.491399,8.97347868 C115.733874,8.97347868 115.119694,8.35353 115.119694,7.58890778 C115.119694,7.48464111 115.203531,7.40001889 115.30683,7.40001889 L115.30683,7.40001889 Z"
				      id = "形状结合"></path>
			</g>
		</g>
	</g>
</svg>