<?xml version="1.0" encoding="UTF-8"?>
<svg width = "64px"
     height = "60px"
     viewBox = "0 0 64 60"
     version = "1.1"
     xmlns = "http://www.w3.org/2000/svg"
     xmlns:xlink = "http://www.w3.org/1999/xlink">
	<title>Fill 1</title>
	<g id = "light"
	   stroke = "none"
	   stroke-width = "1"
	   fill = "none"
	   fill-rule = "evenodd">
		<g id = "广场-关注-游客"
		   transform = "translate(-156.000000, -285.000000)"
		   fill = "#C4C4C4">
			<g id = "编组-3"
			   transform = "translate(50.000000, 285.000000)">
				<g id = "编组"
				   transform = "translate(24.000000, 0.000000)">
					<path d = "M126.297051,19.7275435 C126.297051,21.4245365 124.919781,22.8018061 123.222788,22.8018061 C121.525795,22.8018061 120.148525,21.4245365 120.148525,19.7275435 L120.148525,16.6532808 C120.148525,14.9562878 121.525795,13.5790182 123.222788,13.5790182 C124.919781,13.5790182 126.297051,14.9562878 126.297051,16.6532808 L126.297051,19.7275435 Z M114,46.9040254 C108.773753,46.9040254 104.568162,42.9382265 104.568162,36.3900471 C104.568162,29.8418676 108.773753,25.8760688 114,25.8760688 C119.226247,25.8760688 123.431838,29.8418676 123.431838,36.3900471 C123.431838,42.9382265 119.226247,46.9040254 114,46.9040254 L114,46.9040254 Z M101.702949,19.7275435 L101.702949,16.6532808 C101.702949,14.9562878 103.080219,13.5790182 104.777212,13.5790182 C106.474205,13.5790182 107.851475,14.9562878 107.851475,16.6532808 L107.851475,19.7275435 C107.851475,21.4245365 106.474205,22.8018061 104.777212,22.8018061 C103.080219,22.8018061 101.702949,21.4245365 101.702949,19.7275435 L101.702949,19.7275435 Z M114,0 C95.52983,0 82,12.4784321 82,29.6512633 C82,46.8240945 95.52983,59.3025267 114,59.3025267 C132.473244,59.3025267 146,46.8240945 146,29.6512633 C146,12.4784321 132.473244,0 114,0 L114,0 Z"
					      id = "Fill-1"></path>
				</g>
			</g>
		</g>
	</g>
</svg>