<?xml version="1.0" encoding="UTF-8"?>
<svg width = "12px"
     height = "15px"
     viewBox = "0 0 12 15"
     version = "1.1"
     xmlns = "http://www.w3.org/2000/svg"
     xmlns:xlink = "http://www.w3.org/1999/xlink">
	<title>路径</title>
	<g id = "控件"
	   stroke = "none"
	   stroke-width = "1"
	   fill = "none"
	   fill-rule = "evenodd">
		<g id = "发布"
		   transform = "translate(-10.000000, -9.000000)"
		   fill = "#FFFFFF"
		   fill-rule = "nonzero">
			<path d = "M16,23.4 C15.28,23.4 14.8,22.92 14.8,22.2 C14.8,21.6 14.8,14.88 14.8,13.08 L12.04,15.84 C11.56,16.32 10.84,16.32 10.36,15.84 L10.36,15.84 C9.88,15.36 9.88,14.64 10.36,14.16 L15.16,9.36 C15.4,9.12 15.76,9 16,9 C16.36,9 16.6,9.12 16.84,9.36 L21.64,14.16 C22.12,14.64 22.12,15.36 21.64,15.84 L21.64,15.84 C21.16,16.32 20.44,16.32 19.96,15.84 L17.2,13.08 C17.2,14.88 17.2,21.6 17.2,22.2 C17.2,22.8 16.72,23.4 16,23.4 Z"
			      id = "路径"></path>
		</g>
	</g>
</svg>