<?xml version="1.0" encoding="UTF-8"?>
<svg width = "24px"
     height = "24px"
     viewBox = "0 0 24 24"
     version = "1.1"
     xmlns = "http://www.w3.org/2000/svg"
     xmlns:xlink = "http://www.w3.org/1999/xlink">
	<title>icon-删除-on</title>
	<g id = "icon-删除-on"
	   stroke = "none"
	   stroke-width = "1"
	   fill = "none"
	   fill-rule = "evenodd">
		<rect id = "bound"
		      x = "0"
		      y = "0"
		      width = "24"
		      height = "24"></rect>
		<path d = "M12.200018,3 C11.2055155,3 10.4000225,3.80549301 10.4000225,4.7999955 L5.90000225,4.7999955 C5.40320101,4.7999955 5,5.20319651 5,5.69999775 C5,6.19679899 5.40320101,6.599991 5.90000225,6.599991 L18.5000338,6.599991 C18.996835,6.599991 19.400036,6.19679899 19.400036,5.69999775 C19.400036,5.20319651 18.996835,4.7999955 18.5000338,4.7999955 L14.0000225,4.7999955 C14.0000225,3.80549301 13.1945205,3 12.200018,3 Z M5.90000225,8.3999955 L5.90000225,17.3999955 C5.90000225,19.3709959 7.52451531,20.9720999 9.50002025,20.9720999 L14.9279248,21 C16.9034298,21 18.5000338,19.3754959 18.5000338,17.3999955 L18.5000338,8.3999955 L5.90000225,8.3999955 Z M10.4000225,11.0999752 C10.8968147,11.0999752 11.3000158,11.5031763 11.3000158,11.9999775 L11.3000158,17.399991 C11.3000158,17.8967922 10.8968147,18.2999932 10.4000225,18.2999932 C9.90322126,18.2999932 9.50002025,17.8967922 9.50002025,17.399991 L9.50002025,11.9999775 C9.50002025,11.5031763 9.90322126,11.0999752 10.4000225,11.0999752 Z M14.0000225,11.0999752 C14.4968237,11.0999752 14.9000248,11.5031763 14.9000248,11.9999775 L14.9000248,17.399991 C14.9000248,17.8967922 14.4968237,18.2999932 14.0000225,18.2999932 C13.5032213,18.2999932 13.1000203,17.8967922 13.1000203,17.399991 L13.1000203,11.9999775 C13.1000203,11.5031763 13.5032213,11.0999752 14.0000225,11.0999752 Z"
		      id = "形状"
		      fill = "#0167F9"
		      fill-rule = "nonzero"></path>
	</g>
</svg>