<?xml version="1.0" encoding="UTF-8"?>
<svg width = "48px"
     height = "48px"
     viewBox = "0 0 48 48"
     version = "1.1"
     xmlns = "http://www.w3.org/2000/svg"
     xmlns:xlink = "http://www.w3.org/1999/xlink">
	<title>编组 2</title>
	<g id = "控件"
	   stroke = "none"
	   stroke-width = "1"
	   fill = "none"
	   fill-rule = "evenodd">
		<g id = "编组-2">
			<rect id = "Rectangle-25"
			      x = "0"
			      y = "0"
			      width = "48"
			      height = "48"
			      rx = "8"></rect>
			<g id = "编组"
			   transform = "translate(8.000000, 9.000000)"
			   fill = "#FFFFFF">
				<path d = "M16.8467224,0.200468031 C17.2240874,0.389009683 17.5295336,0.698229476 17.7157744,1.08025659 L21.623492,9.09597736 L30.3614142,10.381358 C31.4072242,10.5352005 32.1318287,11.5181849 31.9798636,12.5769152 C31.9193503,12.9985072 31.7232418,13.3881468 31.4218979,13.6855135 L25.099078,19.9248819 L26.5916933,28.7350116 C26.770339,29.7894639 26.070789,30.7908765 25.0292048,30.9717292 C24.6144405,31.0437457 24.1877925,30.9753364 23.815311,30.777092 L15.9998758,26.617513 L15.9997329,6.69803009e-07 C16.2846283,-0.00023964783 16.5739486,0.0641829823 16.8467224,0.200468031 Z"
				      id = "Combined-Shape"></path>
				<path d = "M15.9994905,8.89851113e-07 L15.9998758,26.617513 L8.18444055,30.777092 C7.24903962,31.2749369 6.0920895,30.9108594 5.60032013,29.9639022 C5.40449499,29.5868189 5.33692059,29.1549 5.40805824,28.7350116 L6.90067354,19.9248819 L0.577853642,13.6855135 C-0.178901606,12.9387462 -0.194386182,11.7123214 0.543267874,10.946217 C0.837005588,10.6411502 1.22189028,10.4426189 1.63833732,10.381358 L10.3762595,9.09597736 L14.2839771,1.08025659 C14.6170175,0.397106191 15.2946954,0.000686137391 15.9994905,8.89851113e-07 Z"
				      id = "Combined-Shape"
				      opacity = "0.3"></path>
			</g>
		</g>
	</g>
</svg>