<?xml version="1.0" encoding="UTF-8"?>
<svg width = "24px"
     height = "24px"
     viewBox = "0 0 24 24"
     version = "1.1"
     xmlns = "http://www.w3.org/2000/svg"
     xmlns:xlink = "http://www.w3.org/1999/xlink">
	<title>bar-icon-探索-on</title>
	<g id = "bar-icon-探索-on"
	   stroke = "none"
	   stroke-width = "1"
	   fill = "none"
	   fill-rule = "evenodd">
		<rect id = "bound"
		      x = "0"
		      y = "0"
		      width = "24"
		      height = "24"></rect>
		<path d = "M12.000018,3 C7.02929194,3 3,7.0293 3,12 C3,16.9707 7.02929194,21 12.000018,21 C16.9707081,21 21,16.9707 21,12 C21,7.0293 16.9707081,3 12.000018,3 Z M15.3192114,7.555809 C16.02211,7.321809 16.6782086,7.977909 16.4442091,8.680809 L14.6442127,14.0808 C14.5542129,14.3499 14.3499133,14.5542 14.0808138,14.6442 C13.4058152,14.8692 9.35668729,16.2183 8.68078864,16.4442 C7.97789004,16.6782 7.32179136,16.0221 7.55579089,15.3192 L9.35578729,9.919191 C9.44578711,9.650091 9.6500867,9.445809 9.91918616,9.355809 L15.3192114,7.555809 Z M12.000018,11.1 C11.503219,11.1 11.1000198,11.5032 11.1000198,12 C11.1000198,12.4968 11.503219,12.9 12.000018,12.9 C12.496817,12.9 12.9000162,12.4968 12.9000162,12 C12.9000162,11.5032 12.496817,11.1 12.000018,11.1 Z"
		      id = "形状"
		      fill = "#0167F9"
		      fill-rule = "nonzero"></path>
	</g>
</svg>