<?xml version="1.0" encoding="UTF-8"?>
<svg width = "36px"
     height = "36px"
     viewBox = "0 0 36 36"
     version = "1.1"
     xmlns = "http://www.w3.org/2000/svg"
     xmlns:xlink = "http://www.w3.org/1999/xlink">
	<title>Button / Control / Text / 间距小</title>
	<g id = "Button-/-Control-/-Text-/-间距小"
	   stroke = "none"
	   stroke-width = "1"
	   fill = "none"
	   fill-rule = "evenodd">
		<g id = "编组-13"
		   transform = "translate(10.000000, 11.996373)"
		   fill = "#212121">
			<path d = "M0.764013343,2.21555488 L9.93217345,2.21555488 C10.3905815,2.21555488 10.6961868,1.91250911 10.6961868,1.45794047 C10.6961868,1.00337182 10.3905815,0.70032606 9.93217345,0.70032606 L0.764013343,0.70032606 C0.305605337,0.70032606 0,1.00337182 0,1.45794047 C0,1.91250911 0.305605337,2.21555488 0.764013343,2.21555488 L0.764013343,2.21555488 Z"
			      id = "Shape"></path>
			<path d = "M9.93217345,3.73078369 L0.764013343,3.73078369 C0.305605337,3.73078369 0,4.03382946 0,4.4883981 C0,4.94296675 0.305605337,5.24601251 0.764013343,5.24601251 L9.93217345,5.24601251 C10.3905815,5.24601251 10.6961868,4.94296675 10.6961868,4.4883981 C10.6961868,4.03382946 10.3905815,3.73078369 9.93217345,3.73078369 L9.93217345,3.73078369 Z"
			      id = "Shape"></path>
			<path d = "M9.93217345,6.76124133 L0.764013343,6.76124133 C0.305605337,6.76124133 0,7.06428709 0,7.51885574 C0,7.97342438 0.305605337,8.27647014 0.764013343,8.27647014 L9.93217345,8.27647014 C10.3905815,8.27647014 10.6961868,7.97342438 10.6961868,7.51885574 C10.6961868,7.06428709 10.3905815,6.76124133 9.93217345,6.76124133 L9.93217345,6.76124133 Z"
			      id = "Shape"></path>
			<path d = "M9.93217345,9.79169896 L0.764013343,9.79169896 C0.305605337,9.79169896 0,10.0947447 0,10.5493134 C0,11.003882 0.305605337,11.3069278 0.764013343,11.3069278 L9.93217345,11.3069278 C10.3905815,11.3069278 10.6961868,11.003882 10.6961868,10.5493134 C10.6961868,10.0947447 10.3905815,9.79169896 9.93217345,9.79169896 L9.93217345,9.79169896 Z"
			      id = "Shape"></path>
			<path d = "M16.4924502,11.1253856 C16.3098549,11.1261535 16.1883806,11.0658003 16.0671623,10.944582 L14.0670603,8.94447997 L14.062965,9.91832173 C14.0614292,10.2835124 13.816945,10.5279967 13.4517543,10.5295324 L13.4517543,10.5295324 C13.0865636,10.5310682 12.844127,10.2886315 12.8456628,9.92344088 L12.8559011,7.48883648 C12.8574368,7.12364582 13.1019211,6.87916155 13.4671117,6.8776258 L15.9017161,6.86738751 C16.2669068,6.86585176 16.5093434,7.10828838 16.5078077,7.47347904 C16.5062719,7.8386697 16.2617877,8.08315397 15.896597,8.08468971 L14.9227552,8.08878503 L16.9228573,10.0888871 C17.1652939,10.3313237 17.1637581,10.6965143 16.9192739,10.9409986 C16.7970317,11.0632407 16.6750456,11.1246178 16.4924502,11.1253856 L16.4924502,11.1253856 Z"
			      id = "Path"
			      transform = "translate(14.974661, 8.996387) rotate(45.000000) translate(-14.974661, -8.996387) "></path>
			<path d = "M16.4822105,5.12962771 L14.0476061,5.13986601 C13.6824154,5.14140175 13.4399788,4.89896514 13.4415146,4.53377448 C13.4430503,4.16858382 13.6875346,3.92409955 14.0527253,3.92256381 L15.026567,3.91846849 L13.026465,1.91836645 C12.7840284,1.67592984 12.7855641,1.31073918 13.0300484,1.06625491 C13.2745326,0.821770642 13.6397233,0.820234898 13.8821599,1.06267151 L15.882262,3.06277355 L15.8863573,2.08893179 C15.887893,1.72374113 16.1323773,1.47925686 16.4975679,1.47772111 C16.8627586,1.47618537 17.1051952,1.71862198 17.1036595,2.08381264 L17.0934212,4.51841704 C17.0918854,4.8836077 16.8474012,5.12809197 16.4822105,5.12962771 L16.4822105,5.12962771 Z"
			      id = "Path"
			      transform = "translate(14.974662, 3.010868) rotate(45.000000) translate(-14.974662, -3.010868) "></path>
		</g>
	</g>
</svg>