<?xml version="1.0" encoding="UTF-8"?>
<svg width = "36px"
     height = "36px"
     viewBox = "0 0 36 36"
     version = "1.1"
     xmlns = "http://www.w3.org/2000/svg"
     xmlns:xlink = "http://www.w3.org/1999/xlink">
	<title>Button / Control / Text / 字号小</title>
	<g id = "Button-/-Control-/-Text-/-字号小"
	   stroke = "none"
	   stroke-width = "1"
	   fill = "none"
	   fill-rule = "evenodd">
		<g id = "编组"
		   transform = "translate(9.000000, 13.000000)"
		   fill = "#212121">
			<path d = "M17.28,5.5 L11.52,5.5 C11.12256,5.5 10.8,5.108 10.8,4.625 C10.8,4.142 11.12256,3.75 11.52,3.75 L17.28,3.75 C17.67744,3.75 18,4.142 18,4.625 C18,5.108 17.67744,5.5 17.28,5.5"
			      id = "Fill-246"></path>
			<path d = "M0,9.22740525 C0,8.96501458 0.0952066116,8.73177843 0.269752066,8.39650146 C1.01553719,6.83673469 1.69785124,5.34985423 1.84066116,5.04373178 C2.12628099,4.37317784 2.69752066,3.11953353 3.79239669,0.56851312 C3.95107438,0.204081633 4.36363636,0 4.77619835,0 C5.39504132,0 5.68066116,0.204081633 5.83933884,0.597667638 C6.33123967,1.66180758 7.21983471,3.83381924 7.9338843,5.4664723 C7.99735537,5.59766764 8.09256198,5.77259475 8.15603306,5.91836735 C8.7431405,7.27405248 9.0922314,8.04664723 9.45719008,8.80466472 C9.53652893,8.96501458 9.6,9.12536443 9.6,9.32944606 C9.6,9.63556851 9.18743802,10 8.63206612,10 C8.15603306,10 7.94975207,9.83965015 7.75933884,9.43148688 C7.26743802,8.27988338 6.96595041,7.56559767 6.93421488,7.43440233 C6.37884298,7.41982507 5.33157025,7.41982507 4.18909091,7.41982507 L2.63404959,7.41982507 C2.49123967,7.72594752 2.11041322,8.70262391 1.84066116,9.3148688 C1.6661157,9.70845481 1.49157025,9.98542274 1.01553719,9.98542274 C0.539504132,9.98542274 0,9.78134111 0,9.22740525 Z M4.80793388,1.96793003 C4.41123967,3.04664723 3.68132231,4.78134111 3.12595041,6.13702624 C3.88760331,6.13702624 5.10942149,6.13702624 6.41057851,6.10787172 C6.10909091,5.33527697 5.12528926,2.81341108 4.80793388,1.96793003 Z"
			      id = "A"
			      fill-rule = "nonzero"></path>
		</g>
	</g>
</svg>