<?xml version="1.0" encoding="UTF-8"?>
<svg width = "24px"
     height = "24px"
     viewBox = "0 0 24 24"
     version = "1.1"
     xmlns = "http://www.w3.org/2000/svg"
     xmlns:xlink = "http://www.w3.org/1999/xlink">
	<title>编组</title>
	<g id = "控件"
	   stroke = "none"
	   stroke-width = "1"
	   fill = "none"
	   fill-rule = "evenodd">
		<g id = "编组">
			<path d = "M12.8041702,4.10348696 C13.0013829,4.20081719 13.1610104,4.36044472 13.2583406,4.55765732 L15.3005308,8.6955866 L19.8670069,9.35913441 C20.4135517,9.43855203 20.7922332,9.94599488 20.7128156,10.4925397 C20.6811911,10.7101768 20.5787039,10.9113192 20.4212202,11.0648278 L17.1168871,14.2857565 L17.8969344,18.8337809 C17.9902954,19.3781174 17.6247075,19.8950733 17.0803711,19.9884343 C16.8636135,20.0256111 16.6406454,19.9902965 16.4459849,19.8879574 L12.3616045,17.7406716 L12.3618022,4.00000016 C12.5106018,3.99991686 12.6617044,4.03317587 12.8041702,4.10348696 Z"
			      id = "Combined-Shape"
			      fill = "#707070"></path>
			<path d = "M12.3618022,4.00000016 L12.3616045,17.7406716 L8.27722416,19.8879574 C7.78837958,20.1449582 7.18375242,19.9570117 6.92675161,19.4681671 C6.82441254,19.2735066 6.78909787,19.0505386 6.82627471,18.8337809 L7.60632195,14.2857565 L4.30198882,11.0648278 C3.90650524,10.6793266 3.89841294,10.0462133 4.28391415,9.65072974 C4.43742275,9.4932461 4.63856517,9.39075892 4.8562022,9.35913441 L9.42267827,8.6955866 L11.4648685,4.55765732 C11.6389797,4.20486949 11.99333,4.00020643 12.3618022,4.00000016 Z"
			      id = "Combined-Shape"
			      fill = "#707070"
			      opacity = "0.3"></path>
			<rect id = "bound"
			      x = "0"
			      y = "0"
			      width = "24"
			      height = "24"></rect>
		</g>
	</g>
</svg>