<?xml version="1.0" encoding="UTF-8"?>
<svg width = "36px"
     height = "36px"
     viewBox = "0 0 36 36"
     version = "1.1"
     xmlns = "http://www.w3.org/2000/svg"
     xmlns:xlink = "http://www.w3.org/1999/xlink">
	<title>编组</title>
	<g id = "控件"
	   stroke = "none"
	   stroke-width = "1"
	   fill = "none"
	   fill-rule = "evenodd">
		<g id = "编组">
			<polygon id = "Bound"
			         points = "0 0 36 0 36 36 0 36"></polygon>
			<g id = "Edit备份-2"
			   transform = "translate(7.000000, 6.000000)"
			   fill = "#212121">
				<g id = "Edit备份"
				   transform = "translate(0.000000, 0.000000)">
					<path d = "M6.19600444,19.6452458 L6.10643387,5.59411069 C6.10336837,5.11321773 6.29552556,4.65165435 6.63894663,4.31501003 L9.55190625,1.4595321 C10.2349562,0.789960874 11.3256777,0.781895333 12.0185549,1.44129201 L14.9625417,4.24302241 C15.3118145,4.57541791 15.5108656,5.03557958 15.5139391,5.51772971 L15.6040903,19.6599518 C15.6103404,20.6404116 14.8205874,21.4402979 13.8401276,21.446548 C13.8325832,21.4465961 13.8250386,21.4465961 13.8174942,21.446548 L7.95996713,21.4092085 C6.98833455,21.4030147 6.20219823,20.6168784 6.19600444,19.6452458 Z"
					      id = "Path-11"
					      fill-rule = "nonzero"
					      transform = "translate(10.858595, 10.858595) rotate(-135.000000) translate(-10.858595, -10.858595) "></path>
					<rect id = "Rectangle"
					      opacity = "0.5"
					      x = "2.92030345"
					      y = "21.6329127"
					      width = "17.5282494"
					      height = "2.3670873"
					      rx = "1.18354365"></rect>
				</g>
			</g>
		</g>
	</g>
</svg>