<?xml version="1.0" encoding="UTF-8"?>
<svg width = "24px"
     height = "24px"
     viewBox = "0 0 24 24"
     version = "1.1"
     xmlns = "http://www.w3.org/2000/svg"
     xmlns:xlink = "http://www.w3.org/1999/xlink">
	<title>画板</title>
	<g id = "画板"
	   stroke = "none"
	   stroke-width = "1"
	   fill = "none"
	   fill-rule = "evenodd">
		<path d = "M12.0016045,17.7406716 L7.91722416,19.8879574 C7.42837958,20.1449582 6.82375242,19.9570117 6.56675161,19.4681671 C6.46441254,19.2735066 6.42909787,19.0505386 6.46627471,18.8337809 L7.24632195,14.2857565 L3.94198882,11.0648278 C3.54650524,10.6793266 3.53841294,10.0462133 3.92391415,9.65072974 C4.07742275,9.4932461 4.27856517,9.39075892 4.4962022,9.35913441 L9.06267827,8.6955866 L11.1048685,4.55765732 C11.3492908,4.06240366 11.9489166,3.85906466 12.4441702,4.10348696 C12.6413829,4.20081719 12.8010104,4.36044472 12.8983406,4.55765732 L14.9405308,8.6955866 L19.5070069,9.35913441 C20.0535517,9.43855203 20.4322332,9.94599488 20.3528156,10.4925397 C20.3211911,10.7101768 20.2187039,10.9113192 20.0612202,11.0648278 L16.7568871,14.2857565 L17.5369344,18.8337809 C17.6302954,19.3781174 17.2647075,19.8950733 16.7203711,19.9884343 C16.5036135,20.0256111 16.2806454,19.9902965 16.0859849,19.8879574 L12.0016045,17.7406716 Z"
		      id = "Star"
		      fill = "#0167F9"></path>
	</g>
</svg>