<?xml version="1.0" encoding="UTF-8"?>
<svg width = "24px"
     height = "24px"
     viewBox = "0 0 24 24"
     version = "1.1"
     xmlns = "http://www.w3.org/2000/svg"
     xmlns:xlink = "http://www.w3.org/1999/xlink">
	<title>编组</title>
	<g id = "控件"
	   stroke = "none"
	   stroke-width = "1"
	   fill = "none"
	   fill-rule = "evenodd">
		<g id = "编组">
			<rect id = "bound"
			      x = "0"
			      y = "0"
			      width = "24"
			      height = "24"></rect>
			<path d = "M12,6 C12.5522847,6 13,6.44771525 13,7 L13,11 L17,11 C17.5522847,11 18,11.4477153 18,12 C18,12.5522847 17.5522847,13 17,13 L12.999,13 L13,17 C13,17.5522847 12.5522847,18 12,18 C11.4477153,18 11,17.5522847 11,17 L10.999,13 L7,13 C6.44771525,13 6,12.5522847 6,12 C6,11.4477153 6.44771525,11 7,11 L11,11 L11,7 C11,6.44771525 11.4477153,6 12,6 Z"
			      id = "Combined-Shape"
			      fill = "#FFFFFF"></path>
			<g id = "plus-square-fill"
			   transform = "translate(3.600000, 3.600000)"
			   fill = "#0167F9"
			   fill-rule = "nonzero">
				<path d = "M3.73333748,0 C1.67160186,0 0,1.6716052 0,3.73334495 L0,13.066698 C0,15.1284377 1.67160186,16.8000429 3.73333748,16.8000429 L13.0666625,16.8000429 C15.1283981,16.8000429 16.8,15.1284377 16.8,13.066698 L16.8,3.73334495 C16.8,1.6716052 15.1283981,0 13.0666625,0 L3.73333748,0 Z M8.39999067,3.73334495 C8.91519124,3.73334495 9.33332504,4.15147958 9.33332504,4.66668119 L9.33332504,7.46668056 L12.1333281,7.46668056 C12.6485287,7.46668056 13.0666625,7.8848152 13.0666625,8.4000168 C13.0666625,8.9152184 12.6485287,9.33335304 12.1333281,9.33335304 L9.33332504,9.33335304 L9.33332504,12.1333617 C9.33332504,12.6485634 8.91519124,13.066698 8.39999067,13.066698 C7.88479009,13.066698 7.4666563,12.6485634 7.4666563,12.1333617 L7.4666563,9.33335304 L4.66667185,9.33335304 C4.15147128,9.33335304 3.73333748,8.9152184 3.73333748,8.4000168 C3.73333748,7.8848152 4.15147128,7.46668056 4.66667185,7.46668056 L7.4666563,7.46668056 L7.4666563,4.66668119 C7.4666563,4.15147958 7.88479009,3.73334495 8.39999067,3.73334495 Z"
				      id = "形状"></path>
			</g>
		</g>
	</g>
</svg>