<?xml version="1.0" encoding="UTF-8"?>
<svg width = "48px"
     height = "48px"
     viewBox = "0 0 48 48"
     version = "1.1"
     xmlns = "http://www.w3.org/2000/svg"
     xmlns:xlink = "http://www.w3.org/1999/xlink">
	<title>编组</title>
	<g id = "控件"
	   stroke = "none"
	   stroke-width = "1"
	   fill = "none"
	   fill-rule = "evenodd">
		<g id = "编组">
			<path d = "M6.53333333,21.0666667 L16.5333333,7.73333333 C16.8647042,7.29150553 17.4915055,7.20196248 17.9333333,7.53333333 C18.009139,7.59018758 18.0764791,7.65752767 18.1333333,7.73333333 L28.1333333,21.0666667 C28.4647042,21.5084945 28.3751611,22.1352958 27.9333333,22.4666667 C27.7602372,22.5964888 27.5497035,22.6666667 27.3333333,22.6666667 L7.33333333,22.6666667 C6.78104858,22.6666667 6.33333333,22.2189514 6.33333333,21.6666667 C6.33333333,21.4502965 6.40351121,21.2397628 6.53333333,21.0666667 Z"
			      id = "Path"
			      fill = "#FFFFFF"></path>
			<rect id = "矩形"
			      fill = "#FFFFFF"
			      x = "5.33333333"
			      y = "29.3333333"
			      width = "37.3333333"
			      height = "4"
			      rx = "1"></rect>
			<rect id = "矩形备份"
			      fill = "#FFFFFF"
			      opacity = "0.3"
			      x = "5.33333333"
			      y = "37.3333333"
			      width = "24"
			      height = "4"
			      rx = "1"></rect>
			<path d = "M36,17.3333333 C39.6818983,17.3333333 42.6666667,14.348565 42.6666667,10.6666667 C42.6666667,6.98476833 39.6818983,4 36,4 C32.3181017,4 29.3333333,6.98476833 29.3333333,10.6666667 C29.3333333,14.348565 32.3181017,17.3333333 36,17.3333333 Z"
			      id = "Path"
			      fill = "#FFFFFF"
			      opacity = "0.3"></path>
			<rect id = "Rectangle-25"
			      x = "0"
			      y = "0"
			      width = "48"
			      height = "48"
			      rx = "8"></rect>
		</g>
	</g>
</svg>