<?xml version="1.0" encoding="UTF-8"?>
<svg width = "24px"
     height = "24px"
     viewBox = "0 0 24 24"
     version = "1.1"
     xmlns = "http://www.w3.org/2000/svg"
     xmlns:xlink = "http://www.w3.org/1999/xlink">
	<title>icon-通过审核-on</title>
	<g id = "icon-通过审核-on"
	   stroke = "none"
	   stroke-width = "1"
	   fill = "none"
	   fill-rule = "evenodd">
		<rect id = "bound"
		      x = "0"
		      y = "0"
		      width = "24"
		      height = "24"></rect>
		<path d = "M8.59999004,3 C6.3029264,3 5,4.30355639 5,6.60188004 L5,20.1089887 C5,20.7554569 5.67175814,21.1793557 6.2655765,20.9250164 L12.1999621,18.3924234 L18.1342757,20.9250164 C18.728184,21.1797157 19.3999422,20.7552769 19.3999422,20.1089887 L19.3999422,6.60188004 C19.3999422,4.23956657 18.2257154,3 15.7999521,3 L8.59999004,3 Z M14.8999546,8.40286497 C15.130264,8.40277505 15.3711033,8.48026484 15.5467828,8.65603435 C15.8982318,9.00766338 15.8982318,9.59887174 15.5467828,9.95050077 L11.9467928,13.5524168 C11.5953438,13.9042258 11.0044954,13.9040458 10.6530464,13.5524168 L8.85306934,11.7515218 C8.50162031,11.3998928 8.50162031,10.8086844 8.85306934,10.4570554 C9.20460837,10.1052103 9.79536673,10.1053903 10.1468158,10.4570554 L11.2999646,11.6107622 L14.2530364,8.65603435 C14.4288059,8.48017484 14.6695552,8.40286497 14.8999546,8.40286497 Z"
		      id = "形状"
		      fill = "#0167F9"
		      fill-rule = "nonzero"></path>
	</g>
</svg>