<?xml version="1.0" encoding="UTF-8"?>
<svg width = "24px"
     height = "24px"
     viewBox = "0 0 24 24"
     version = "1.1"
     xmlns = "http://www.w3.org/2000/svg"
     xmlns:xlink = "http://www.w3.org/1999/xlink">
	<title>icon / rili</title>
	<g id = "icon-/-rili"
	   stroke = "none"
	   stroke-width = "1"
	   fill = "none"
	   fill-rule = "evenodd">
		<g id = "RILI"
		   transform = "translate(3.000000, 3.000000)"
		   fill = "#212121"
		   fill-rule = "nonzero">
			<path d = "M5,-4.4408921e-16 C4.4477,-4.4408921e-16 4,0.448 4,1 C1.7899,1 0,2.792 0,5 L0,7 L0,15.00004 C0,17.20804 1.7909,19.00004 4,19.00004 L14.00004,19.00004 C16.20904,19.00004 18.00004,17.20904 18.00004,15.00004 L18.00004,7 L18.00004,5 C18.00004,2.795 16.20804,1 14.00004,1 C14.00004,0.448 13.55204,-4.4408921e-16 13.00004,-4.4408921e-16 C12.44804,-4.4408921e-16 12.00004,0.448 12.00004,1 L6,1 C6,0.448 5.5523,-4.4408921e-16 5,-4.4408921e-16 Z M4,3 C4,3.552 4.4477,4 5,4 C5.5523,4 6,3.552 6,3 L12.00004,3 C12.00004,3.552 12.44804,4 13.00004,4 C13.55204,4 14.00004,3.552 14.00004,3 C15.10104,3 16.00004,3.892 16.00004,5 L16.00004,6 C14.07404,6 3.9256,6 2,6 L2,5 C2,3.898 2.8924,3 4,3 Z M2,8.00004 C3.9245,8.00004 14.07504,8.00004 16.00004,8.00004 L16.00004,15.00004 C16.00004,16.10304 15.10504,17.00004 14.00004,17.00004 L4,17.00004 C2.8954,17.00004 2,16.10504 2,15.00004 L2,8.00004 Z M5,10.00004 C4.4477,10.00004 4,10.44804 4,11.00004 C4,11.55204 4.4477,12.00004 5,12.00004 C5.5523,12.00004 6,11.55204 6,11.00004 C6,10.44804 5.5523,10.00004 5,10.00004 Z M9.00004,10.00004 C8.44804,10.00004 8.00004,10.44804 8.00004,11.00004 C8.00004,11.55204 8.44804,12.00004 9.00004,12.00004 C9.55204,12.00004 10.00004,11.55204 10.00004,11.00004 C10.00004,10.44804 9.55204,10.00004 9.00004,10.00004 Z M13.00004,10.00004 C12.44804,10.00004 12.00004,10.44804 12.00004,11.00004 C12.00004,11.55204 12.44804,12.00004 13.00004,12.00004 C13.55204,12.00004 14.00004,11.55204 14.00004,11.00004 C14.00004,10.44804 13.55204,10.00004 13.00004,10.00004 Z M5,13.00004 C4.4477,13.00004 4,13.44804 4,14.00004 C4,14.55204 4.4477,15.00004 5,15.00004 C5.5523,15.00004 6,14.55204 6,14.00004 C6,13.44804 5.5523,13.00004 5,13.00004 Z M9.00004,13.00004 C8.44804,13.00004 8.00004,13.44804 8.00004,14.00004 C8.00004,14.55204 8.44804,15.00004 9.00004,15.00004 C9.55204,15.00004 10.00004,14.55204 10.00004,14.00004 C10.00004,13.44804 9.55204,13.00004 9.00004,13.00004 Z M13.00004,13.00004 C12.44804,13.00004 12.00004,13.44804 12.00004,14.00004 C12.00004,14.55204 12.44804,15.00004 13.00004,15.00004 C13.55204,15.00004 14.00004,14.55204 14.00004,14.00004 C14.00004,13.44804 13.55204,13.00004 13.00004,13.00004 Z"
			      id = "形状"></path>
		</g>
	</g>
</svg>