<?xml version="1.0" encoding="UTF-8"?>
<svg width = "24px"
     height = "24px"
     viewBox = "0 0 24 24"
     version = "1.1"
     xmlns = "http://www.w3.org/2000/svg"
     xmlns:xlink = "http://www.w3.org/1999/xlink">
	<title>bar-icon-图库-on</title>
	<g id = "bar-icon-图库-on"
	   stroke = "none"
	   stroke-width = "1"
	   fill = "none"
	   fill-rule = "evenodd">
		<rect id = "bound"
		      x = "0"
		      y = "0"
		      width = "24"
		      height = "24"></rect>
		<g id = "image-fill"
		   transform = "translate(3.700000, 3.700000)"
		   fill = "#0167F9"
		   fill-rule = "nonzero">
			<path d = "M3.68888786,4.09550667e-16 C1.65169445,4.09550667e-16 0,1.65170697 0,3.68890446 L0,12.9111472 C0,14.9483447 1.65169445,16.6000516 3.68888786,16.6000516 L12.9111029,16.6000516 C14.9482963,16.6000516 16.6,14.9483447 16.6,12.9111472 L16.6,3.68890446 C16.6,1.65170697 14.9482963,4.09550667e-16 12.9111029,4.09550667e-16 L3.68888786,4.09550667e-16 Z M11.9888786,2.76667835 C13.0079365,2.76667835 13.8333272,3.59207072 13.8333272,4.61113058 C13.8333272,5.63019044 13.0079365,6.45558281 11.9888786,6.45558281 C10.9698208,6.45558281 10.1444301,5.63019044 10.1444301,4.61113058 C10.1444301,3.59207072 10.9698208,2.76667835 11.9888786,2.76667835 Z M5.07222427,7.37778972 C5.60894958,7.37871271 6.42421428,8.21424957 7.20437912,9.65476676 C7.51424648,10.2247025 7.79183598,10.8527385 8.04083654,11.47063 C8.19023687,11.8395204 8.3055149,12.1217216 8.35715946,12.2766556 C8.60892669,13.0301143 9.63075118,13.1370926 10.0291521,12.4500341 C10.0688077,12.3817894 10.1407412,12.2508333 10.2597081,12.0756103 C10.4589086,11.780498 10.6857757,11.4816967 10.9227874,11.2105622 C11.5148554,10.5318038 12.0866344,10.1444688 12.4499908,10.1444688 C12.8179583,10.1536911 13.3860484,10.5401038 13.9771942,11.2105622 C14.2169725,11.4826189 14.4383063,11.780498 14.6402734,12.0756103 C14.7039069,12.1678329 14.7131291,12.2111776 14.7555515,12.2766556 L14.7555515,12.9111472 C14.7555515,13.930207 13.9301607,14.7555994 12.9111029,14.7555994 L3.68888786,14.7555994 C2.66983004,14.7555994 1.84443932,13.930207 1.84443932,12.9111472 L1.84443932,12.1327883 C1.90253945,11.9686321 1.98001551,11.7740424 2.10359356,11.47063 C2.35536079,10.8527385 2.62832073,10.2256247 2.94003253,9.65476676 C3.72668984,8.21148289 4.53641197,7.37686826 5.07222427,7.37778972 Z"
			      id = "形状"></path>
		</g>
	</g>
</svg>