<?xml version="1.0" encoding="UTF-8"?>
<svg width = "36px"
     height = "36px"
     viewBox = "0 0 36 36"
     version = "1.1"
     xmlns = "http://www.w3.org/2000/svg"
     xmlns:xlink = "http://www.w3.org/1999/xlink">
	<title>Button / Control / Text / 字号大</title>
	<g id = "Button-/-Control-/-Text-/-字号大"
	   stroke = "none"
	   stroke-width = "1"
	   fill = "none"
	   fill-rule = "evenodd">
		<g id = "编组"
		   transform = "translate(9.000000, 13.000000)"
		   fill = "#212121">
			<path d = "M17.2799913,4.25 L15.1199654,4.25 L15.1199654,2 C15.1199654,1.586 14.7974015,1.25 14.3999567,1.25 C14.0025119,1.25 13.6799481,1.586 13.6799481,2 L13.6799481,4.25 L11.5199221,4.25 C11.1224773,4.25 10.7999134,4.586 10.7999134,5 C10.7999134,5.414 11.1224773,5.75 11.5199221,5.75 L13.6799481,5.75 L13.6799481,8 C13.6799481,8.414 14.0025119,8.75 14.3999567,8.75 C14.7974015,8.75 15.1199654,8.414 15.1199654,8 L15.1199654,5.75 L17.2799913,5.75 C17.6774361,5.75 18,5.414 18,5 C18,4.586 17.6774361,4.25 17.2799913,4.25"
			      id = "Fill-247"></path>
			<path d = "M0,9.22740525 C0,8.96501458 0.0952058484,8.73177843 0.269749904,8.39650146 C1.01552905,6.83673469 1.69783763,5.34985423 1.8406464,5.04373178 C2.12626395,4.37317784 2.69749904,3.11953353 3.79236629,0.56851312 C3.95104271,0.204081633 4.36360138,0 4.77616006,0 C5.39499808,0 5.68061562,0.204081633 5.83929203,0.597667638 C6.33118892,1.66180758 7.21977684,3.83381924 7.9338207,5.4664723 C7.99729126,5.59766764 8.09249711,5.77259475 8.15596768,5.91836735 C8.74307041,7.27405248 9.09215852,8.04664723 9.45711427,8.80466472 C9.53645248,8.96501458 9.59992305,9.12536443 9.59992305,9.32944606 C9.59992305,9.63556851 9.18736437,10 8.63199692,10 C8.15596768,10 7.94968834,9.83965015 7.75927664,9.43148688 C7.26737976,8.27988338 6.96589457,7.56559767 6.93415929,7.43440233 C6.37879184,7.41982507 5.33152751,7.41982507 4.18905733,7.41982507 L2.63402847,7.41982507 C2.4912197,7.72594752 2.11039631,8.70262391 1.8406464,9.3148688 C1.66610235,9.70845481 1.49155829,9.98542274 1.01552905,9.98542274 C0.539499808,9.98542274 0,9.78134111 0,9.22740525 Z M4.80789534,1.96793003 C4.41120431,3.04664723 3.6812928,4.78134111 3.12592536,6.13702624 C3.88757214,6.13702624 5.10938053,6.13702624 6.41052713,6.10787172 C6.10904194,5.33527697 5.12524817,2.81341108 4.80789534,1.96793003 Z"
			      id = "A"
			      fill-rule = "nonzero"></path>
		</g>
	</g>
</svg>