<?xml version="1.0" encoding="UTF-8"?>
<svg width = "24px"
     height = "24px"
     viewBox = "0 0 24 24"
     version = "1.1"
     xmlns = "http://www.w3.org/2000/svg"
     xmlns:xlink = "http://www.w3.org/1999/xlink">
	<title>bar-icon-探索-off</title>
	<g id = "bar-icon-探索-off"
	   stroke = "none"
	   stroke-width = "1"
	   fill = "none"
	   fill-rule = "evenodd">
		<path d = "M12.000018,3 C7.02929194,3 3,7.0293 3,12 C3,16.9707 7.02929194,21 12.000018,21 C16.9707081,21 21,16.9707 21,12 C21,7.0293 16.9707081,3 12.000018,3 Z M12.000018,4.8 C15.97621,4.8 19.2000036,8.0238 19.2000036,12 C19.2000036,15.9762 15.97621,19.2 12.000018,19.2 C8.02378995,19.2 4.7999964,15.9762 4.7999964,12 C4.7999964,8.0238 8.02378995,4.8 12.000018,4.8 Z M15.3192114,7.555809 L9.91918616,9.355809 C9.6500867,9.445809 9.44578711,9.650091 9.35578729,9.919191 L7.55579089,15.3192 C7.32179136,16.0221 7.97789004,16.6782 8.68078864,16.4442 C9.35668729,16.2183 13.4058152,14.8692 14.0808138,14.6442 C14.3499133,14.5542 14.5542129,14.3499 14.6442127,14.0808 L16.4442091,8.680809 C16.6782086,7.977909 16.02211,7.321809 15.3192114,7.555809 Z M14.1942136,9.805809 L13.0971158,13.0971 C12.3897172,13.3329 11.1009198,13.7622 9.80578639,14.1942 L10.9029202,10.9029 L14.1942136,9.805809 Z"
		      id = "形状"
		      fill = "#707070"
		      fill-rule = "nonzero"></path>
	</g>
</svg>