<?xml version="1.0" encoding="UTF-8"?>
<svg width = "24px"
     height = "24px"
     viewBox = "0 0 24 24"
     version = "1.1"
     xmlns = "http://www.w3.org/2000/svg"
     xmlns:xlink = "http://www.w3.org/1999/xlink">
	<title>编组 2</title>
	<g id = "控件"
	   stroke = "none"
	   stroke-width = "1"
	   fill = "none"
	   fill-rule = "evenodd">
		<g id = "编组-2">
			<rect id = "bound"
			      x = "0"
			      y = "0"
			      width = "24"
			      height = "24"></rect>
			<g id = "编组"
			   transform = "translate(5.000000, 5.000000)"
			   fill = "#707070"
			   fill-rule = "nonzero">
				<path d = "M6.45114597,0.654227787 C6.85146839,0.654227787 7.17599383,0.975368836 7.17599383,1.3715164 C7.17599383,1.76766396 6.85146839,2.08880501 6.45114597,2.08880501 L2.89939145,2.08880501 C2.09874661,2.08880501 1.44969572,2.73108711 1.44969572,3.52338223 L1.44969572,12.1308456 C1.44969572,12.9231407 2.09874661,13.5654228 2.89939145,13.5654228 L11.5975658,13.5654228 C12.3982106,13.5654228 13.0472615,12.9231407 13.0472615,12.1308456 L13.0472615,10.6962683 C13.0472615,10.3001208 13.371787,9.97897973 13.7721094,9.97897973 C14.1724318,9.97897973 14.4969572,10.3001208 14.4969572,10.6962683 L14.4969572,12.1308456 C14.4969572,13.7154358 13.1988555,15 11.5975658,15 L2.89939145,15 C1.29810177,15 0,13.7154358 0,12.1308456 L0,3.52338223 C0,1.93879199 1.29810177,0.654227787 2.89939145,0.654227787 L6.45114597,0.654227787 Z"
				      id = "Path-57"
				      opacity = "0.3"></path>
				<path d = "M15.9967092,9.18806136 C15.9967092,8.64097331 16.1151778,6.48192938 14.3940919,4.76902273 C13.2357319,3.61623004 11.5021409,3.41628239 9.42893981,3.32510104 L9.42893981,1.56517655 C9.42893981,1.0128918 8.98122456,0.56517655 8.42893981,0.56517655 C8.18232415,0.56517655 7.94440604,0.65630565 7.76089429,0.821056134 L4.18370771,4.03253023 C3.77274136,4.40148158 3.73868146,5.0337298 4.10763281,5.44469616 C4.12932373,5.46885717 4.15217852,5.49194742 4.17611594,5.51388484 L7.75330253,8.79219263 C8.16046573,9.1653368 8.79302984,9.13775892 9.16617401,8.73059571 C9.3351852,8.546176 9.42893981,8.30510922 9.42893981,8.05495843 L9.42893981,6.3262698 L9.42893981,6.3262698 C10.745258,6.36209104 11.6828946,6.44494642 12.5347925,6.71313921 C13.7310412,7.08973984 14.6622499,8.14107984 15.3284186,9.8671592 C15.4355566,10.1447558 15.7024459,10.3278281 16,10.3278281 L16,10.3278281 L16,10.3278281 C16,9.99892401 15.9967092,9.47788777 15.9967092,9.18806136 Z"
				      id = "Shape"
				      transform = "translate(9.812120, 5.163914) scale(-1, 1) translate(-9.812120, -5.163914) "></path>
			</g>
		</g>
	</g>
</svg>