<?xml version="1.0" encoding="UTF-8"?>
<svg width = "36px"
     height = "36px"
     viewBox = "0 0 36 36"
     version = "1.1"
     xmlns = "http://www.w3.org/2000/svg"
     xmlns:xlink = "http://www.w3.org/1999/xlink">
	<title>icon-显示密码</title>
	<g id = "icon-显示密码"
	   stroke = "none"
	   stroke-width = "1"
	   fill = "none"
	   fill-rule = "evenodd">
		<path d = "M18.000024,8 C14.4445731,8 11.4490849,9.74705568 8.9882908,12.6187832 C8.1459975,13.6004574 7.40944146,14.649431 6.81106476,15.697191 C6.44819376,16.3316144 6.22709477,16.8218508 6.09732633,17.1246438 C5.96755789,17.4262353 5.96755789,17.7987187 6.09732633,18.1003102 C6.22709477,18.4031032 6.44819376,18.8933396 6.81106476,19.527763 C7.40944146,20.575523 8.1459975,21.6244846 8.9882908,22.6061588 C11.4490849,25.4778863 14.4445731,27.224954 18.000024,27.224954 C21.555439,27.224954 24.5509271,25.4778863 27.0117212,22.6061588 C27.8540145,21.6244846 28.5905706,20.575523 29.1889473,19.527763 C29.5518183,18.8933396 29.7729052,18.4031032 29.9026737,18.1003102 C30.0324421,17.7987187 30.0324421,17.4262353 29.9026737,17.1246438 C29.7729052,16.8218508 29.5518183,16.3316144 29.1889473,15.697191 C28.5905706,14.649431 27.8540145,13.6004574 27.0117212,12.6187832 C24.5509271,9.74705568 21.555439,8 18.000024,8 Z M18.000024,12.8062385 C20.6542692,12.8062385 22.8062625,14.9582198 22.8062625,17.612477 C22.8062625,20.2667222 20.6542692,22.4187155 18.000024,22.4187155 C15.3457428,22.4187155 13.1937495,20.2667222 13.1937495,17.612477 C13.1937495,14.9582198 15.3457428,12.8062385 18.000024,12.8062385 Z M18.000024,15.2093457 C16.6723006,15.2093457 15.5969048,16.2847536 15.5969048,17.612477 C15.5969048,18.9402004 16.6723006,20.0155962 18.000024,20.0155962 C19.3277474,20.0155962 20.4031433,18.9402004 20.4031433,17.612477 C20.4031433,16.2847536 19.3277474,15.2093457 18.000024,15.2093457 Z"
		      id = "形状"
		      fill = "#C4C4C4"
		      fill-rule = "nonzero"></path>
	</g>
</svg>