<?xml version="1.0" encoding="UTF-8"?>
<svg width = "48px"
     height = "48px"
     viewBox = "0 0 48 48"
     version = "1.1"
     xmlns = "http://www.w3.org/2000/svg"
     xmlns:xlink = "http://www.w3.org/1999/xlink">
	<title>编组</title>
	<g id = "控件"
	   stroke = "none"
	   stroke-width = "1"
	   fill = "none"
	   fill-rule = "evenodd">
		<g id = "编组">
			<rect id = "Rectangle-25"
			      x = "0"
			      y = "0"
			      width = "48"
			      height = "48"
			      rx = "8"></rect>
			<g id = "编组-3"
			   transform = "translate(8.000000, 8.000000)"
			   fill = "#FFFFFF">
				<path d = "M27.5555556,23.1111111 C30.0101544,23.1111111 32,25.1009567 32,27.5555556 C32,30.0101544 30.0101544,32 27.5555556,32 C25.1009567,32 23.1111111,30.0101544 23.1111111,27.5555556 C23.1111111,25.1009567 25.1009567,23.1111111 27.5555556,23.1111111 Z M4.44444444,23.1111111 C6.89904333,23.1111111 8.88888889,25.1009567 8.88888889,27.5555556 C8.88888889,30.0101544 6.89904333,32 4.44444444,32 C1.98984556,32 0,30.0101544 0,27.5555556 C0,25.1009567 1.98984556,23.1111111 4.44444444,23.1111111 Z M27.5555556,0 C30.0101544,0 32,1.98984556 32,4.44444444 C32,6.89904333 30.0101544,8.88888889 27.5555556,8.88888889 C25.1009567,8.88888889 23.1111111,6.89904333 23.1111111,4.44444444 C23.1111111,1.98984556 25.1009567,0 27.5555556,0 Z"
				      id = "Combined-Shape"
				      opacity = "0.3"></path>
				<path d = "M17.7777778,26.6666667 C18.7596173,26.6666667 19.5555556,27.4626049 19.5555556,28.4444444 C19.5555556,29.426284 18.7596173,30.2222222 17.7777778,30.2222222 L14.2222222,30.2222222 C13.2403827,30.2222222 12.4444444,29.426284 12.4444444,28.4444444 C12.4444444,27.4626049 13.2403827,26.6666667 14.2222222,26.6666667 L17.7777778,26.6666667 Z M3.55555556,12.4444444 C4.53739511,12.4444444 5.33333333,13.2403827 5.33333333,14.2222222 L5.33333333,17.7777778 C5.33333333,18.7596173 4.53739511,19.5555556 3.55555556,19.5555556 C2.573716,19.5555556 1.77777778,18.7596173 1.77777778,17.7777778 L1.77777778,14.2222222 C1.77777778,13.2403827 2.573716,12.4444444 3.55555556,12.4444444 Z M28.4444444,12.4444444 C29.426284,12.4444444 30.2222222,13.2403827 30.2222222,14.2222222 L30.2222222,17.7777778 C30.2222222,18.7596173 29.426284,19.5555556 28.4444444,19.5555556 C27.4626049,19.5555556 26.6666667,18.7596173 26.6666667,17.7777778 L26.6666667,14.2222222 C26.6666667,13.2403827 27.4626049,12.4444444 28.4444444,12.4444444 Z M4.44444444,0 C6.89904333,0 8.88888889,1.98984556 8.88888889,4.44444444 C8.88888889,6.89904333 6.89904333,8.88888889 4.44444444,8.88888889 C1.98984556,8.88888889 0,6.89904333 0,4.44444444 C0,1.98984556 1.98984556,0 4.44444444,0 Z M17.7777778,1.77777778 C18.7596173,1.77777778 19.5555556,2.573716 19.5555556,3.55555556 C19.5555556,4.53739511 18.7596173,5.33333333 17.7777778,5.33333333 L14.2222222,5.33333333 C13.2403827,5.33333333 12.4444444,4.53739511 12.4444444,3.55555556 C12.4444444,2.573716 13.2403827,1.77777778 14.2222222,1.77777778 L17.7777778,1.77777778 Z"
				      id = "Combined-Shape"></path>
			</g>
		</g>
	</g>
</svg>