<?xml version="1.0" encoding="UTF-8"?>
<svg width = "36px"
     height = "36px"
     viewBox = "0 0 36 36"
     version = "1.1"
     xmlns = "http://www.w3.org/2000/svg"
     xmlns:xlink = "http://www.w3.org/1999/xlink">
	<title>Button / Control / Text / 底色-off</title>
	<g id = "Button-/-Control-/-Text-/-底色-off"
	   stroke = "none"
	   stroke-width = "1"
	   fill = "none"
	   fill-rule = "evenodd">
		<path d = "M22.5,9 C24.975,9 27,11.025 27,13.5 L27,13.5 L27,22.5 C27,24.975 24.975,27 22.5,27 L22.5,27 L13.5,27 C11.025,27 9,24.975 9,22.5 L9,22.5 L9,13.5 C9,11.025 11.025,9 13.5,9 L13.5,9 Z M17.977686,13.5 C17.5909091,13.5 17.2041322,13.6836735 17.0553719,14.0116618 C16.8322314,14.5107745 16.6322908,14.9547058 16.4532575,15.3500602 L16.1530825,16.0106616 C15.6887735,17.0289809 15.4002515,17.6457726 15.2256198,18.0393586 C15.0917355,18.3148688 14.4520661,19.6530612 13.7528926,21.0568513 C13.5892562,21.3586006 13.5,21.5685131 13.5,21.8046647 C13.5,22.303207 14.0057851,22.4868805 14.4520661,22.4868805 C14.8983471,22.4868805 15.0619835,22.2376093 15.2256198,21.8833819 C15.4785124,21.3323615 15.8355372,20.4533528 15.9694215,20.1778426 L15.9694215,20.1778426 L17.9536501,20.1779033 C18.0395661,20.1779337 18.1244318,20.1779792 18.208032,20.1780476 L18.6927256,20.1787916 C19.2364669,20.1801203 19.6971074,20.183309 20.0008264,20.1909621 C20.0305785,20.3090379 20.3132231,20.951895 20.7743802,21.9883382 C20.9528926,22.3556851 21.146281,22.5 21.592562,22.5 C22.1132231,22.5 22.5,22.1720117 22.5,21.8965015 C22.5,21.712828 22.4404959,21.5685131 22.3661157,21.4241983 C22.0239669,20.7419825 21.6966942,20.0466472 21.146281,18.8265306 C21.0867769,18.6953353 20.9975207,18.5379009 20.9380165,18.4198251 C20.268595,16.9504373 19.4355372,14.9956268 18.9743802,14.0379009 C18.8256198,13.6836735 18.5578512,13.5 17.977686,13.5 Z M18.007438,15.271137 C18.3049587,16.03207 19.2272727,18.3017493 19.5099174,18.9970845 C18.5118708,19.0185529 17.5636159,19.0224562 16.8606982,19.0231659 L16.4305785,19.0233236 C16.572577,18.6905645 16.7267468,18.3324338 16.8834313,17.9678271 L17.1972922,17.2355777 C17.5087836,16.5058911 17.804583,15.8006891 18.007438,15.271137 Z"
		      id = "形状结合"
		      fill = "#212121"></path>
	</g>
</svg>