<?xml version="1.0" encoding="UTF-8"?>
<svg width = "24px"
     height = "24px"
     viewBox = "0 0 24 24"
     version = "1.1"
     xmlns = "http://www.w3.org/2000/svg"
     xmlns:xlink = "http://www.w3.org/1999/xlink">
	<title>bar-icon-作图-off</title>
	<g id = "bar-icon-作图-off"
	   stroke = "none"
	   stroke-width = "1"
	   fill = "none"
	   fill-rule = "evenodd">
		<rect id = "bound"
		      x = "0"
		      y = "0"
		      width = "24"
		      height = "24"></rect>
		<path d = "M7.33334681,3.6 C5.27160186,3.6 3.6,5.2716052 3.6,7.33334495 L3.6,16.666698 C3.6,18.7284377 5.27160186,20.4000429 7.33334681,20.4000429 L16.6666625,20.4000429 C18.7283981,20.4000429 20.4,18.7284377 20.4,16.666698 L20.4,7.33334495 C20.4,5.2716052 18.7283981,3.6 16.6666625,3.6 L7.33334681,3.6 Z M7.33334681,5.46667247 L16.6666625,5.46667247 C17.697997,5.46667247 18.5333313,6.30200841 18.5333313,7.33334495 L18.5333313,16.666698 C18.5333313,17.6980345 17.697997,18.5333705 16.6666625,18.5333705 L7.33334681,18.5333705 C6.30201234,18.5333705 5.46666874,17.6980345 5.46666874,16.666698 L5.46666874,7.33334495 C5.46666874,6.30200841 6.30201234,5.46667247 7.33334681,5.46667247 Z M11.9999907,7.33334495 C11.4847901,7.33334495 11.0666563,7.75147958 11.0666563,8.26668119 L11.0666563,11.0666806 L8.26668119,11.0666806 C7.75148061,11.0666806 7.33334681,11.4848152 7.33334681,12.0000168 C7.33334681,12.5152184 7.75148061,12.933353 8.26668119,12.933353 L11.0666563,12.933353 L11.0666563,15.7333617 C11.0666563,16.2485634 11.4847901,16.666698 11.9999907,16.666698 C12.5151912,16.666698 12.933325,16.2485634 12.933325,15.7333617 L12.933325,12.933353 L15.7333281,12.933353 C16.2485287,12.933353 16.6666625,12.5152184 16.6666625,12.0000168 C16.6666625,11.4848152 16.2485287,11.0666806 15.7333281,11.0666806 L12.933325,11.0666806 L12.933325,8.26668119 C12.933325,7.75147958 12.5151912,7.33334495 11.9999907,7.33334495 Z"
		      id = "形状"
		      fill = "#707070"
		      fill-rule = "nonzero"></path>
	</g>
</svg>