<?xml version="1.0" encoding="UTF-8"?>
<svg width = "36px"
     height = "36px"
     viewBox = "0 0 36 36"
     version = "1.1"
     xmlns = "http://www.w3.org/2000/svg"
     xmlns:xlink = "http://www.w3.org/1999/xlink">
	<title>icon-上色-on</title>
	<g id = "icon-上色-on"
	   stroke = "none"
	   stroke-width = "1"
	   fill = "none"
	   fill-rule = "evenodd">
		<rect id = "bound"
		      x = "0"
		      y = "0"
		      width = "36"
		      height = "36"></rect>
		<g id = "编组"
		   transform = "translate(5.000000, 5.000000)"
		   fill = "#212121">
			<path d = "M18.3833186,10.197355 C18.2316545,9.45636739 17.5762487,8.89954334 16.7919285,8.89954334 L9.20872152,8.89954334 C8.31065316,8.89954334 7.5837486,9.62753121 7.5837486,10.5245163 C7.5837486,11.4225846 8.31065316,12.1494892 9.20872152,12.1494892 L11.3753521,12.1494892 L11.3753521,15.2131048 L11.3753521,17.0244079 C11.3753521,17.9224763 12.1022566,18.6493808 13.000325,18.6493808 C13.89731,18.6493808 14.6252979,17.9224763 14.6252979,17.0244079 L14.6252979,15.038691 L14.6252979,12.1494892 L16.7919285,12.1494892 C17.5762487,12.1494892 18.2316545,11.5926651 18.3833186,10.8516775 C18.4049849,10.7465959 18.4169014,10.637181 18.4169014,10.5245163 C18.4169014,10.4129348 18.4049849,10.3035199 18.3833186,10.197355"
			      id = "Fill-1"></path>
			<path d = "M1.36075232,7.15952234 C2.92397627,8.06192397 4.4579507,8.94807587 5.95184247,9.81147814 C5.73301278,10.6261312 5.52068299,11.4115348 5.3018533,12.2261879 L0.00119164681,12.2261879 C0.111689805,10.4463009 0.554765754,8.77257879 1.36075232,7.15952234"
			      id = "Fill-3"
			      opacity = "0.5"></path>
			<path d = "M0,13.7746788 L5.3039116,13.7746788 C5.51949134,14.5817486 5.73073782,15.3671522 5.95173414,16.1937218 C4.46109232,17.0549574 2.9217013,17.9443593 1.3617273,18.8445943 C0.555740738,17.2402043 0.114831419,15.5653989 0,13.7746788"
			      id = "Fill-5"
			      opacity = "0.4"></path>
			<path d = "M13.7817203,0.0019499675 C15.5616073,0.112448126 17.2342461,0.557690705 18.841886,1.35934401 C17.941651,2.91931801 17.0533324,4.45870902 16.1910135,5.95368411 C15.3752771,5.7337711 14.5963734,5.52469126 13.7817203,5.30477825 L13.7817203,0.0019499675 Z"
			      id = "Fill-7"
			      opacity = "0.2"></path>
			<path d = "M19.2852869,8.49546674 C18.6797137,7.88881019 18.1077232,7.31681972 17.5075665,6.71774637 C18.3688022,5.22602123 19.258204,3.68446359 20.1595223,2.12340628 C21.6544974,3.11463976 22.879727,4.34203597 23.8785437,5.84242763 C22.3283195,6.73832936 20.7878452,7.6277312 19.2852869,8.49546674"
			      id = "Fill-9"
			      opacity = "0.3"></path>
			<path d = "M19.2860452,17.5104915 C20.7821036,18.3749771 22.3182447,19.261129 23.8782187,20.161364 C22.8891518,21.6541724 21.662839,22.8783187 20.161364,23.8836353 C19.2676289,22.3355777 18.378227,20.7951034 17.5061582,19.2860452 C18.0987317,18.6956384 18.6761387,18.1193147 19.2860452,17.5104915"
			      id = "Fill-11"
			      opacity = "0.6"></path>
			<path d = "M18.8416693,24.6433643 C17.2351127,25.4493508 15.5613906,25.8891768 13.7782537,26.0040083 L13.7782537,20.6990133 C14.5820736,20.4834336 15.3674772,20.2732704 16.1907968,20.0522741 C17.0498658,21.5407493 17.9360177,23.0747238 18.8416693,24.6433643"
			      id = "Fill-13"
			      opacity = "0.1"></path>
			<path d = "M12.221963,5.34941084 C11.79947,5.43499275 11.39756,5.49565841 11.0064832,5.60073999 C10.617573,5.70582157 10.2405793,5.85531908 9.83433609,5.99398343 C8.95143414,4.46542558 8.06528225,2.93145114 7.16071399,1.36281062 C8.75643739,0.557907368 10.4344928,0.11699805 12.221963,0 L12.221963,5.34941084 Z"
			      id = "Fill-15"
			      opacity = "0.1"></path>
			<path d = "M6.71677139,8.4939501 C5.22287962,7.63163114 3.68132198,6.74114598 2.12351461,5.8419943 C3.11691472,4.34376927 4.34322761,3.11962301 5.84145264,2.12405627 C6.73843769,3.67861369 7.62892285,5.22017133 8.49340844,6.71839636 C7.89541841,7.31638639 7.31801137,7.89379344 6.71677139,8.4939501"
			      id = "Fill-17"
			      opacity = "0.6"></path>
			<path d = "M20.6971717,12.2240213 C20.4772587,11.4093682 20.2681789,10.6304645 20.0482659,9.81364477 C21.5410743,8.95132581 23.0804653,8.06192397 24.639356,7.16168897 C25.4453426,8.76716221 25.8851686,10.4419676 26,12.2240213 L20.6971717,12.2240213 Z"
			      id = "Fill-19"
			      opacity = "0.4"></path>
			<path d = "M20.0481575,16.1920968 C20.2691538,15.3720271 20.4782337,14.5931234 20.6970634,13.7817203 L25.997725,13.7817203 C25.8893935,15.5594407 25.4441509,17.2364127 24.640331,18.8429693 C23.0836069,17.9449009 21.5496325,17.058749 20.0481575,16.1920968"
			      id = "Fill-21"
			      opacity = "0.5"></path>
			<path d = "M12.2271629,20.7019383 L12.2271629,26.0015166 C10.4472759,25.8942684 8.77138714,25.4490258 7.16049733,24.6430393 C8.05856569,23.0863152 8.94796753,21.5458409 9.81136981,20.0508658 C10.6260229,20.2696955 11.4038433,20.4798587 12.2271629,20.7019383"
			      id = "Fill-23"
			      opacity = "0.2"></path>
			<path d = "M2.12264796,20.1642889 C3.67937201,19.2651372 5.21442976,18.3789854 6.71915468,17.5101665 C7.30847819,18.1005733 7.8837186,18.6779804 8.49254179,19.2878869 C7.63455609,20.7741954 6.74623756,22.3146698 5.84275262,23.8800603 C4.34994417,22.8942434 3.12688122,21.6668472 2.12264796,20.1642889"
			      id = "Fill-25"
			      opacity = "0.3"></path>
		</g>
	</g>
</svg>