<?xml version="1.0" encoding="UTF-8"?>
<svg width = "36px"
     height = "36px"
     viewBox = "0 0 36 36"
     version = "1.1"
     xmlns = "http://www.w3.org/2000/svg"
     xmlns:xlink = "http://www.w3.org/1999/xlink">
	<title>Button / Control / Text / 加粗-off</title>
	<g id = "Button-/-Control-/-Text-/-加粗-off"
	   stroke = "none"
	   stroke-width = "1"
	   fill = "none"
	   fill-rule = "evenodd">
		<path d = "M18.4581188,10.7083748 C19.3653761,10.7236712 19.8620345,10.7657155 20.2934097,10.8363095 C20.8368108,10.9252364 21.3233517,11.097167 21.7518401,11.3491015 C22.1213264,11.5626108 22.4482654,11.8328479 22.7324949,12.1600099 C23.0183746,12.4890714 23.2361586,12.8528741 23.3862362,13.251187 C23.5363921,13.6497078 23.6118637,14.0707049 23.6118637,14.5143247 C23.6118637,15.2800513 23.4113369,15.9417539 23.0167215,16.5015983 C22.7362946,16.8994424 22.3561311,17.2467951 21.8736369,17.5407097 C22.5737526,17.8365813 23.1185275,18.223891 23.5122977,18.6967026 C24.0285324,19.316561 24.2916667,20.0857534 24.2916667,21.0081855 C24.2916667,21.8509592 24.067972,22.6093757 23.622755,23.2841018 C23.1770028,23.9596391 22.5758436,24.4589437 21.8139391,24.7832898 C21.3528285,24.9700776 20.8231033,25.1027513 20.2242593,25.179479 C19.7392433,25.2416224 19.1868751,25.2781016 18.5671269,25.2885351 L18.1871921,25.2916667 L13.7670375,25.2916667 C12.9101334,25.2546816 12.4788292,25.0714623 12.2009955,24.7891783 C11.9177278,24.5013733 11.7452856,24.0659815 11.7136298,23.4674947 L11.7083333,23.2619372 L11.7083333,12.7314593 C11.7457126,11.8966342 11.9300733,11.4733152 12.2157191,11.1964376 C12.5045979,10.9164261 12.9480568,10.7450708 13.5623027,10.7135999 L13.773399,10.7083333 L18.4581188,10.7083748 Z M17.9704433,19.0747499 L15.217775,19.0747499 L15.217775,22.578729 L18.0689655,22.578729 L18.3354972,22.5743202 C19.1151132,22.5477857 19.714622,22.4007384 20.1260361,22.113242 C20.5442612,21.820986 20.7428161,21.3786113 20.7428161,20.79809 C20.7428161,20.2109756 20.5418443,19.7753464 20.1120778,19.5083115 C19.6341165,19.2113308 18.9173321,19.0747499 17.9704433,19.0747499 L17.9704433,19.0747499 Z M17.3004926,13.421271 L15.217775,13.421271 L15.217775,16.4573101 L17.6059113,16.4573101 L17.8567469,16.4545291 C18.4250008,16.4415125 18.8739961,16.382537 19.2025577,16.2719916 C19.5299344,16.1618448 19.7793537,15.9512265 19.9583525,15.6318195 C20.0946374,15.4098889 20.1615353,15.1612968 20.1615353,14.8867667 C20.1615353,14.5909634 20.1123117,14.3428905 20.0033336,14.1456644 C19.9040229,13.9659342 19.7538903,13.8331374 19.5556648,13.7443634 C19.0628333,13.5236522 18.3096075,13.421271 17.3004926,13.421271 L17.3004926,13.421271 Z"
		      id = "B"
		      stroke = "#212121"
		      stroke-width = "0.583333333"
		      fill = "#212121"
		      fill-rule = "nonzero"></path>
	</g>
</svg>