<?xml version="1.0" encoding="UTF-8"?>
<svg width = "48px"
     height = "48px"
     viewBox = "0 0 48 48"
     version = "1.1"
     xmlns = "http://www.w3.org/2000/svg"
     xmlns:xlink = "http://www.w3.org/1999/xlink">
	<title>编组 2</title>
	<g id = "控件"
	   stroke = "none"
	   stroke-width = "1"
	   fill = "none"
	   fill-rule = "evenodd">
		<g id = "编组-2">
			<rect id = "Rectangle-25"
			      x = "0"
			      y = "0"
			      width = "48"
			      height = "48"
			      rx = "8"></rect>
			<g id = "编组"
			   transform = "translate(8.000000, 12.000000)"
			   fill = "#FFFFFF">
				<path d = "M11.6120143,8.33333333 L11.6120143,23.3333333 L14.9399055,24.4478513 C16.0318243,24.8135373 17.1757532,25 18.3272796,25 L23.2240287,25 C27.0814484,25 30.4018247,22.2754404 31.1549185,18.4922491 L31.5183246,16.6666667 C32.2201748,13.1408991 29.9309375,9.71373775 26.40517,9.01188752 C25.8438994,8.90015925 25.2703454,8.86293681 24.6993418,8.90118288 L20.7357399,9.16666667 L20.7357399,9.16666667 L21.3409371,2.47816483 C21.4540777,1.22776099 20.5321437,0.122389841 19.2817398,0.00924926514 C19.2136273,0.00308622757 19.1452714,-1.25631756e-17 19.0768807,0 C17.5336377,2.83489133e-16 16.1040477,0.811374485 15.3127957,2.13633454 L11.6120143,8.33333333 L11.6120143,8.33333333 Z"
				      id = "Path-42"></path>
				<rect id = "Rectangle-153"
				      opacity = "0.3"
				      x = "0"
				      y = "6.66666667"
				      width = "8.29429595"
				      height = "18.3333333"
				      rx = "3.55555556"></rect>
			</g>
		</g>
	</g>
</svg>