<?xml version="1.0" encoding="UTF-8"?>
<svg width = "19px"
     height = "19px"
     viewBox = "0 0 19 19"
     version = "1.1"
     xmlns = "http://www.w3.org/2000/svg"
     xmlns:xlink = "http://www.w3.org/1999/xlink">
	<title>006</title>
	<g id = "控件"
	   stroke = "none"
	   stroke-width = "1"
	   fill = "none"
	   fill-rule = "evenodd">
		<g id = "icon-素材做图"
		   transform = "translate(-121.000000, -9.000000)"
		   fill = "#212121"
		   fill-rule = "nonzero">
			<g id = "编组"
			   transform = "translate(11.000000, 9.000000)">
				<g id = "006"
				   transform = "translate(110.000000, 0.000000)">
					<path d = "M15.11601,0.00997347549 C14.80601,-0.0340265245 14.49501,0.0689734755 14.27301,0.290973475 C14.04401,0.519973475 5.27801,9.28597348 5.27801,9.28597348 C5.09101,9.47297348 4.99701,9.73897348 4.99701,10.0039735 L4.99701,13.0019735 C4.99701,13.5539735 5.44501,14.0019735 5.99701,14.0019735 C6.37101,14.0019735 8.62001,14.0019735 8.99501,14.0019735 C9.26001,14.0019735 9.52601,13.9079735 9.71301,13.7209735 C9.71301,13.7209735 18.48101,4.95296348 18.70801,4.72597348 C18.93201,4.50197348 19.03501,4.16397348 18.98901,3.85097348 C18.83501,2.80797348 18.39401,2.02198348 17.70901,1.32198348 C17.02101,0.618983475 16.18101,0.159973475 15.11601,0.00997347549 Z M3.99798,1.00899348 C1.78999,1.00899348 0,2.79897348 0,5.00697348 L0,15.0009735 C0,17.2089735 0.79,18.9989735 2.998,18.9989735 L13.99201,18.9989735 C16.20001,18.9989735 17.99001,17.2089735 17.99001,15.0009735 L17.99001,8.25497348 L11.11901,15.1259735 C10.54701,15.6979735 9.78101,16.0009735 8.99501,16.0009735 C8.48001,16.0009735 6.51201,16.0009735 5.99701,16.0009735 C4.34101,16.0009735 2.998,14.6579735 2.998,13.0019735 L2.998,10.0039735 C2.998,9.21797348 3.27001,8.45197348 3.84201,7.87995348 L10.71301,1.00899348 L3.99798,1.00899348 Z M15.30001,2.09499348 C15.68201,2.21499348 15.98701,2.40500348 16.27201,2.69600348 C16.56601,2.99600348 16.77001,3.30201348 16.89201,3.68001348 C16.45801,4.11001348 15.97801,4.57698348 15.47401,5.07698348 L13.89001,3.49196348 C14.39801,2.99096348 14.86201,2.52699348 15.30001,2.09499348 Z"
					      id = "形状"></path>
				</g>
			</g>
		</g>
	</g>
</svg>