<?xml version="1.0" encoding="UTF-8"?>
<svg width = "36px"
     height = "36px"
     viewBox = "0 0 36 36"
     version = "1.1"
     xmlns = "http://www.w3.org/2000/svg"
     xmlns:xlink = "http://www.w3.org/1999/xlink">
	<title>icon-文字框-on</title>
	<g id = "icon-文字框-on"
	   stroke = "none"
	   stroke-width = "1"
	   fill = "none"
	   fill-rule = "evenodd">
		<polygon id = "Bound"
		         points = "0 0 36 0 36 36 0 36"></polygon>
		<path d = "M7.5,21 C8.5,21 9,21.5 9,22.5 L9,27 L13.5,27 C14.5,27.1715729 15,27.6715729 15,28.5 C15,29.3284271 14.5,29.8284271 13.5,30 L6,30 L6,22.5 C6,21.5 6.5,21 7.5,21 Z M28.5,21 C29.3284271,21 29.8284271,21.5 30,22.5 L30,30 L22.5,30 C21.5,30 21,29.5 21,28.5 C21,27.5 21.5,27 22.5,27 L27,27 L27,22.5 C27.1715729,21.5 27.6715729,21 28.5,21 Z M30,6 L30,13.5 C30,14.5 29.5,15 28.5,15 C27.5,15 27,14.5 27,13.5 L27,9 L22.5,9 C21.5,8.82842712 21,8.32842712 21,7.5 C21,6.67157288 21.5,6.17157288 22.5,6 L30,6 Z M13.5,6 C14.5,6 15,6.5 15,7.5 C15,8.5 14.5,9 13.5,9 L9,9 L9,13.5 C8.82842712,14.5 8.32842712,15 7.5,15 C6.67157288,15 6.17157288,14.5 6,13.5 L6,6 L13.5,6 Z"
		      id = "Combined-Shape"
		      fill = "#212121"
		      fill-rule = "nonzero"
		      opacity = "0.5"></path>
		<path d = "M19.5,13.5 L19.5,24 C19.5,24.8284271 18.8284271,25.5 18,25.5 C17.1715729,25.5 16.5,24.8284271 16.5,24 L16.5,13.5 L16.5,13.5 L13.5,13.5 C12.6715729,13.5 12,12.8284271 12,12 C12,11.1715729 12.6715729,10.5 13.5,10.5 L22.5,10.5 C23.3284271,10.5 24,11.1715729 24,12 C24,12.8284271 23.3284271,13.5 22.5,13.5 L19.5,13.5 L19.5,13.5 Z"
		      id = "T"
		      fill = "#212121"></path>
	</g>
</svg>