<?xml version="1.0" encoding="UTF-8"?>
<svg width = "24px"
     height = "24px"
     viewBox = "0 0 24 24"
     version = "1.1"
     xmlns = "http://www.w3.org/2000/svg"
     xmlns:xlink = "http://www.w3.org/1999/xlink">
	<title>bar-icon-图库-off</title>
	<g id = "bar-icon-图库-off"
	   stroke = "none"
	   stroke-width = "1"
	   fill = "none"
	   fill-rule = "evenodd">
		<rect id = "bound"
		      x = "0"
		      y = "0"
		      width = "24"
		      height = "24"></rect>
		<g id = "image"
		   transform = "translate(3.700000, 3.700000)"
		   fill = "#707070"
		   fill-rule = "nonzero">
			<path d = "M3.68889709,4.09550667e-16 C1.65170367,4.09550667e-16 0,1.65170697 0,3.68890446 L0,11.9889211 L0,12.9111472 C0,14.9483447 1.65170367,16.6000516 3.68889709,16.6000516 L12.9111029,16.6000516 C14.9482963,16.6000516 16.6,14.9483447 16.6,12.9111472 L16.6,11.9889211 L16.6,3.68890446 C16.6,1.65170697 14.9482963,4.09550667e-16 12.9111029,4.09550667e-16 L3.68889709,4.09550667e-16 Z M3.68889709,1.84445223 L12.9111029,1.84445223 C13.9301607,1.84445223 14.7555515,2.66984461 14.7555515,3.68890446 L14.7592404,9.40299903 C14.0417499,8.73715178 13.310426,8.32030557 12.5071687,8.3000166 C12.4785797,8.29909437 12.479502,8.3000166 12.4499908,8.3000166 C11.4014218,8.3000166 10.2357303,9.10604223 9.4527619,10.1158798 C9.25263923,9.66398903 9.05067211,9.21763159 8.8182716,8.78971867 C7.73004696,6.78018796 6.54129987,5.53612337 5.07223349,5.5333567 C3.82354183,5.53059002 2.75191723,6.55147588 1.83707075,7.94957068 L1.84444854,3.68890446 C1.84444854,2.66984461 2.66983927,1.84445223 3.68889709,1.84445223 Z M11.9888786,3.68890446 C11.4798108,3.68890446 11.0666544,4.10206176 11.0666544,4.61113058 C11.0666544,5.1201994 11.4798108,5.5333567 11.9888786,5.5333567 C12.4979464,5.5333567 12.9111029,5.1201994 12.9111029,4.61113058 C12.9111029,4.10206176 12.4979464,3.68890446 11.9888786,3.68890446 Z M5.07223349,7.37778972 C5.6089588,7.37871271 6.4242235,8.21424957 7.20437912,9.65476676 C7.51424648,10.2247025 7.79183598,10.8527385 8.04083654,11.47063 C8.19023687,11.8395204 8.3055149,12.1217216 8.35715946,12.2766556 C8.60892669,13.0301143 9.63075118,13.1370926 10.0291521,12.4500341 C10.0688077,12.3817894 10.1407412,12.2508333 10.2597081,12.0756103 C10.4589086,11.780498 10.6857757,11.4816967 10.9227874,11.2105622 C11.5148554,10.5318038 12.0857122,10.1444688 12.4499908,10.1444688 C12.8179583,10.1536911 13.3860484,10.5401038 13.9771942,11.2105622 C14.2169725,11.4826189 14.4383063,11.780498 14.6402734,12.0756103 C14.7039069,12.1678329 14.7131291,12.2111776 14.7555515,12.2766556 L14.7555515,12.9111472 C14.7555515,13.930207 13.9301607,14.7555994 12.9111029,14.7555994 L3.68889709,14.7555994 C2.66983927,14.7555994 1.84444854,13.930207 1.84444854,12.9111472 L1.84444854,12.1327883 C1.90254867,11.9686321 1.98001551,11.7740424 2.10359356,11.47063 C2.35536079,10.8527385 2.62832073,10.2256247 2.94003253,9.65476676 C3.72668984,8.21148289 4.53642119,7.37686826 5.07223349,7.37778972 Z"
			      id = "形状"></path>
		</g>
	</g>
</svg>