<?xml version="1.0" encoding="UTF-8"?>
<svg width="24px" height="24px" viewBox="0 0 24 24" version="1.1" xmlns="http://www.w3.org/2000/svg" xmlns:xlink="http://www.w3.org/1999/xlink">
    <title>icon-通知</title>
    <g id = "icon-通知"
       stroke = "none"
       stroke-width = "1"
       fill = "none"
       fill-rule = "evenodd">
	    <g id = "bell"
	       transform = "translate(3.000000, 2.000000)"
	       fill = "#212121"
	       fill-rule = "nonzero">
		    <path d = "M9.00017546,0 C5.44790546,0 3.00020546,2.44801 3.00020546,6.00002 C3.00020546,6.48502 3.00020546,7.97002 3.00020546,8.00002 C3.00020546,8.32202 2.83760546,8.54102 2.28140546,9.00002 C2.21830546,9.05202 1.95380546,9.27902 1.87520546,9.34402 C0.609805464,10.39002 -0.0129945357,11.37002 0.000205464323,13.00002 C0.0135054643,14.64802 1.35690546,15.98102 3.00020546,16.00002 L6.17620546,16.00002 C6.17620546,16.00002 6.00020546,16.61102 6.00020546,17.00002 C6.00020546,18.65702 7.34317546,20.00002 9.00017546,20.00002 C10.6571755,20.00002 12.0001755,18.65702 12.0001755,17.00002 C12.0001755,16.61102 11.8321755,16.00002 11.8321755,16.00002 L15.0001755,16.00002 C16.6401755,16.00602 18.0021755,14.65502 18.0001777,13.00002 C17.9981755,11.38202 17.3741755,10.38502 16.1251755,9.34402 C16.0431755,9.27502 15.7531755,9.05402 15.6871755,9.00002 C15.1431755,8.54602 15.0001755,8.31802 15.0001755,8.00002 C15.0001755,6.75002 15.0001755,6.00002 15.0001755,6.00002 C15.0001755,2.44801 12.5521755,0 9.00017546,0 Z M9.00017546,2.00001 C11.4481755,2.00001 13.0001755,3.55201 13.0001755,6.00001 C13.0001755,6.00001 13.0001755,6.75002 13.0001755,8.00001 C13.0001755,9.06202 13.4481755,9.73202 14.4061755,10.53102 C14.4821755,10.59402 14.8031755,10.84602 14.8751755,10.90602 C15.7131755,11.60502 15.9991755,12.07802 16.0001771,13.00001 C16.0011755,13.54402 15.5351755,14.00202 15.0001755,14.00001 C14.8111755,13.99902 11.9001755,13.99902 9.00017546,14.00001 C6.10050546,14.00102 3.21270546,14.00202 3.00020546,14.00001 C2.44200546,13.99302 2.00470546,13.55502 2.00006597,13.00001 C1.99280546,12.08002 2.27870546,11.60602 3.12520546,10.90602 C3.19430546,10.84902 3.49000546,10.59102 3.56270546,10.53102 C4.53590546,9.72702 5.00020546,9.07202 5.00020546,8.00001 C5.00020546,7.97002 5.00020546,6.48502 5.00020546,6.00001 C5.00020546,3.55201 6.55250546,2.00001 9.00017546,2.00001 Z M9.00017546,16.00002 C9.55217546,16.00002 10.0001755,16.44802 10.0001755,17.00002 C10.0001755,17.55202 9.55217546,18.00002 9.00017546,18.00002 C8.44817546,18.00002 8.00017546,17.55202 8.00017546,17.00002 C8.00017546,16.44802 8.44817546,16.00002 9.00017546,16.00002 Z"
		          id = "形状"></path>
	    </g>
    </g>
</svg>