<?xml version="1.0" encoding="UTF-8"?>
<svg width="24px" height="24px" viewBox="0 0 24 24" version="1.1" xmlns="http://www.w3.org/2000/svg" xmlns:xlink="http://www.w3.org/1999/xlink">
    <title>icon-通知</title>
    <g id="icon-通知" stroke="none" stroke-width="1" fill="none" fill-rule="evenodd">
        <path d="M6,4 C3.791,4 2,5.791 2,8 L2,16 C2,18.209 3.791,20 6,20 L18.00004,20 C20.20904,20 22.00004,18.209 22.00004,16 L22.00004,8 C22.00004,5.791 20.20904,4 18.00004,4 L6,4 Z M6.00001,6 L18.00004,6 C19.00804,6 19.84104,6.74001 19.97904,7.71001 C19.02104,8.60301 17.59704,9.699 16.65604,10.375 C14.49104,11.93 12.58604,13 12.00004,13 C11.41404,13 9.50901,11.931 7.344,10.375 C6.403,9.699 5.47801,8.968 4.78101,8.375 C4.48401,8.122 4.264,7.918 4.094,7.75 C4.232,6.78 4.992,6 6.00001,6 Z M4.01001,10.354 C6.54802,12.407 10.26704,14.988 12.00004,15 C13.12904,15.008 15.06004,13.93 17.03004,12.569 C18.04904,11.864 19.18304,11.027 20.00104,10.34 L20.00004,16 C20.00004,17.105 19.10504,18 18.00004,18 L6,18 C4.895,18 4,17.105 4,16 L4.01001,10.354 Z" id="形状" fill="#212121" fill-rule="nonzero"></path>
    </g>
</svg>