<?xml version="1.0" encoding="UTF-8"?>
<svg width = "36px"
     height = "36px"
     viewBox = "0 0 36 36"
     version = "1.1"
     xmlns = "http://www.w3.org/2000/svg"
     xmlns:xlink = "http://www.w3.org/1999/xlink">
	<title>icon-邮箱</title>
	<g id = "icon-邮箱"
	   stroke = "none"
	   stroke-width = "1"
	   fill = "none"
	   fill-rule = "evenodd">
		<path d = "M10.7255785,8 C8.28478343,8 6.37441125,8.610375 6.03721193,10.9319256 C5.92921214,11.6753006 6.16678767,12.4068244 6.71279857,12.93525 C6.98399803,13.1976875 7.27079746,13.51 7.6499967,13.825875 C8.6015948,14.6203125 9.81480437,15.5133125 10.9500021,16.3125 C14.0735959,18.509375 16.5396269,19.875 18.000024,19.875 C19.4604211,19.875 21.9264161,18.509375 25.0500099,16.3125 C26.1864076,15.5133125 27.3996052,14.619125 28.3500033,13.825875 C28.7292025,13.51 29.016002,13.198875 29.2872014,12.93525 C29.8332003,12.4068244 30.0707999,11.6753006 29.9628001,10.9319256 C29.6256007,8.610375 27.7152046,8 25.2744095,8 L10.7255785,8 Z M6,15.31025 L6,22.25 C6,24.8731875 8.1491957,27 10.8000024,27 L25.2000096,27 C27.8508043,27 30,24.8731875 30,22.25 L30,15.31025 C29.016002,16.2353125 27.9168042,17.1900625 26.3628073,18.279 C22.9596141,20.6635 19.9032202,22.25 18.000024,22.25 C16.0968278,22.25 13.0404099,20.6635 9.63720473,18.279 C8.08200784,17.1900625 6.98399803,16.2353125 6,15.31025 Z"
		      id = "形状"
		      fill = "#C4C4C4"
		      fill-rule = "nonzero"></path>
	</g>
</svg>