<?xml version="1.0" encoding="UTF-8"?>
<svg width = "24px"
     height = "24px"
     viewBox = "0 0 24 24"
     version = "1.1"
     xmlns = "http://www.w3.org/2000/svg"
     xmlns:xlink = "http://www.w3.org/1999/xlink">
	<title>icon-投票-on</title>
	<g id = "icon-投票-on"
	   stroke = "none"
	   stroke-width = "1"
	   fill = "none"
	   fill-rule = "evenodd">
		<rect id = "bound"
		      x = "0"
		      y = "0"
		      width = "24"
		      height = "24"></rect>
		<path d = "M16,3 C17.6568542,3 19,4.34314575 19,6 L19,18 C19,19.6568542 17.6568542,21 16,21 L8,21 C6.34314575,21 5,19.6568542 5,18 L5,6 C5,4.34314575 6.34314575,3 8,3 L16,3 Z M11.99999,8 L9,11 L10.9999867,11 L10.9999867,15.0000133 C10.9999867,15.5520152 11.4479882,16.0000167 11.99999,16.0000167 C12.5519918,16.0000167 13,15.5520152 13,15.0000133 L13,15.0000133 L13,11 L15,11 L11.99999,8 Z"
		      id = "形状结合"
		      fill = "#0167F9"></path>
	</g>
</svg>