<?xml version="1.0" encoding="UTF-8"?>
<svg width = "24px"
     height = "24px"
     viewBox = "0 0 24 24"
     version = "1.1"
     xmlns = "http://www.w3.org/2000/svg"
     xmlns:xlink = "http://www.w3.org/1999/xlink">
	<title>编组 2</title>
	<g id = "控件"
	   stroke = "none"
	   stroke-width = "1"
	   fill = "none"
	   fill-rule = "evenodd">
		<g id = "编组-2">
			<rect id = "bound"
			      x = "0"
			      y = "0"
			      width = "24"
			      height = "24"></rect>
			<g id = "编组"
			   transform = "translate(3.000000, 5.000000)"
			   fill = "#0167F9">
				<path d = "M6.53175806,4.66666667 L6.53175806,13.0666667 L8.40719326,13.6919625 C9.01911548,13.8959858 9.65993346,14 10.3049717,14 L13.0635161,14 C15.2337436,14 17.102252,12.4681171 17.52777,10.3400142 L17.7290576,9.33333333 C18.1236201,7.36004493 16.8438099,5.44052249 14.8705215,5.04595996 C14.5557239,4.98301562 14.2339882,4.96194971 13.9136707,4.98330936 L11.6638537,5.13333333 L11.6638537,5.13333333 L12.0037186,1.39391707 C12.0676163,0.690873352 11.549486,0.0691445257 10.8464423,0.00524687064 C10.8079758,0.00175075352 10.7693705,-7.09531807e-18 10.7307454,0 C9.86241289,1.59510091e-16 9.05776441,0.45564075 8.61109024,1.20027724 L6.53175806,4.66666667 L6.53175806,4.66666667 Z"
				      id = "Path-42"></path>
				<rect id = "Rectangle-153"
				      opacity = "0.3"
				      x = "0"
				      y = "3.73333333"
				      width = "4.66554147"
				      height = "10.2666667"
				      rx = "2"></rect>
			</g>
		</g>
	</g>
</svg>