<?xml version="1.0" encoding="UTF-8"?>
<svg width = "36px"
     height = "36px"
     viewBox = "0 0 36 36"
     version = "1.1"
     xmlns = "http://www.w3.org/2000/svg"
     xmlns:xlink = "http://www.w3.org/1999/xlink">
	<title>icon-隐藏密码</title>
	<g id = "icon-隐藏密码"
	   stroke = "none"
	   stroke-width = "1"
	   fill = "none"
	   fill-rule = "evenodd">
		<path d = "M17.9991219,8.00002987 C14.4439382,7.99164967 11.4486753,9.7469843 8.98806615,12.6184959 C8.14583617,13.6000963 7.40932348,14.648991 6.81097976,15.6966362 C6.44813603,16.331012 6.2270777,16.8212115 6.09731901,17.1239817 C5.96756033,17.4255505 5.96756033,17.798006 6.09731901,18.0995748 C6.2270777,18.4023451 6.44813603,18.8925445 6.81097976,19.5269203 C7.29278096,20.3715532 7.85506859,21.2318053 8.5002576,22.042797 C8.60238249,22.1713542 9.41337427,23.0916797 10.1150323,23.806554 L8.72494437,25.1582069 C8.25637135,25.6279814 8.25637135,26.4161453 8.72494437,26.8859198 C9.19471887,27.3544928 9.98287071,27.3544928 10.4526452,26.8859198 L27.2732634,10.0653737 C27.7418364,9.59559917 27.7418364,8.80744732 27.2732634,8.33767283 C27.0377754,8.10338632 26.7169831,8.00002987 26.409407,8.00002987 C26.1018308,8.00002987 25.7810385,8.10338632 25.5455505,8.33767283 L24.0064684,9.91519 C22.0204396,8.58636496 20.0452241,8.00486584 17.9991219,8.00002987 Z M17.9991219,12.8059251 C18.621483,12.8059251 19.5718452,12.9705504 20.439306,13.4811749 L18.5998566,15.3217778 C18.4112259,15.2232573 18.0519866,15.2088637 17.9991219,15.2088637 C16.6714983,15.2088637 15.5961833,16.2841547 15.5961833,17.6117783 C15.5961833,17.6646429 15.5793387,18.0286881 15.6334289,18.2497585 C15.4027227,18.5297008 13.8312009,20.0519624 13.8312009,20.0519624 C13.4130896,19.323872 13.1980146,18.445598 13.1931485,17.6117783 C13.1799925,14.9577566 15.3450402,12.8059251 17.9991219,12.8059251 Z M27.5363852,13.2192306 C27.5363852,13.2192306 15.8160522,24.8950851 14.2444943,26.4726143 C15.9746461,27.1586533 17.7504178,27.2235326 17.9991219,27.2235326 C21.5542695,27.2235326 24.5495325,25.4765963 27.0101416,22.6050847 C27.8523716,21.6234842 28.5888723,20.5746016 29.187204,19.5269203 C29.5500477,18.8925445 29.7711181,18.4023451 29.9008767,18.0995748 C30.0318369,17.7944016 30.0342398,17.4279535 29.9008767,17.1239817 C29.6281432,16.4992177 29.1151158,15.5056026 28.324549,14.3450193 C28.111889,14.0338388 27.5363852,13.2192306 27.5363852,13.2192306 Z"
		      id = "形状"
		      fill = "#C4C4C4"
		      fill-rule = "nonzero"></path>
	</g>
</svg>