<?xml version="1.0" encoding="UTF-8"?>
<svg width = "48px"
     height = "48px"
     viewBox = "0 0 48 48"
     version = "1.1"
     xmlns = "http://www.w3.org/2000/svg"
     xmlns:xlink = "http://www.w3.org/1999/xlink">
	<title>编组</title>
	<g id = "控件"
	   stroke = "none"
	   stroke-width = "1"
	   fill = "none"
	   fill-rule = "evenodd">
		<g id = "编组">
			<rect id = "Rectangle-25"
			      x = "0"
			      y = "0"
			      width = "48"
			      height = "48"
			      rx = "8"></rect>
			<path d = "M35.1661268,10 C37.8137923,10 39.9601492,12.1463569 39.9601492,14.7940224 L39.9601492,29.0889016 L39.959,29.122 L40,29.1063392 L40,36.4036912 C40,37.2862464 39.2845477,38.0016987 38.4019925,38.0016987 C37.9791834,38.0016987 37.5736067,37.834136 37.2740913,37.5357101 L33.607,33.882 L12.7940224,33.8829239 C10.1463569,33.8829239 8,31.736567 8,29.0889016 L8,14.7940224 C8,12.1463569 10.1463569,10 12.7940224,10 L35.1661268,10 Z M32.8565269,19.8205782 C32.1221967,19.3328054 31.1300428,19.5305144 30.6404893,20.2621737 C28.7915386,23.0255118 26.6098655,24.3297544 23.9800746,24.3297544 C21.3502837,24.3297544 19.1686106,23.0255118 17.3196599,20.2621737 C16.8301064,19.5305144 15.8379525,19.3328054 15.1036222,19.8205782 C14.369292,20.3083511 14.1708612,21.2968961 14.6604147,22.0285553 C17.0728172,25.6339969 20.2178356,27.5141442 23.9800746,27.5141442 C27.7423136,27.5141442 30.887332,25.6339969 33.2997345,22.0285553 C33.789288,21.2968961 33.5908572,20.3083511 32.8565269,19.8205782 Z"
			      id = "Combined-Shape"
			      fill = "#FFFFFF"
			      transform = "translate(24.000000, 24.000000) scale(-1, 1) translate(-24.000000, -24.000000) "></path>
		</g>
	</g>
</svg>