<?xml version="1.0" encoding="UTF-8"?>
<svg width = "24px"
     height = "24px"
     viewBox = "0 0 24 24"
     version = "1.1"
     xmlns = "http://www.w3.org/2000/svg"
     xmlns:xlink = "http://www.w3.org/1999/xlink">
	<title>编组 2</title>
	<g id = "控件"
	   stroke = "none"
	   stroke-width = "1"
	   fill = "none"
	   fill-rule = "evenodd">
		<g id = "编组-2">
			<rect id = "bound"
			      x = "0"
			      y = "0"
			      width = "24"
			      height = "24"></rect>
			<g id = "编组备份"
			   transform = "translate(4.000000, 5.000000)"
			   fill = "#0167F9">
				<path d = "M11.9790273,0 C14.1881663,-4.05812251e-16 15.9790273,1.790861 15.9790273,4 L15.9790273,8.79442354 C15.9790273,8.95453608 15.9696199,9.11245143 15.9513278,9.267647 L16,9.23553883 L16,14.1554657 C16,14.6199379 15.6234708,14.9964671 15.1589986,14.9964671 C14.9338928,14.9964671 14.718183,14.9062237 14.560137,14.7459301 L12.590299,12.7480114 C12.3910061,12.7785718 12.1868679,12.7944235 11.9790273,12.7944235 L4,12.7944235 C1.790861,12.7944235 2.705415e-16,11.0035625 0,8.79442354 L0,4 C-2.705415e-16,1.790861 1.790861,4.05812251e-16 4,0 L11.9790273,0 Z"
				      id = "Combined-Shape"
				      opacity = "0.3"></path>
				<path d = "M3.5,8 C2.67157288,8 2,7.32842712 2,6.5 C2,5.67157288 2.67157288,5 3.5,5 C4.32842712,5 5,5.67157288 5,6.5 C5,7.32842712 4.32842712,8 3.5,8 Z M7.5,8 C6.67157288,8 6,7.32842712 6,6.5 C6,5.67157288 6.67157288,5 7.5,5 C8.32842712,5 9,5.67157288 9,6.5 C9,7.32842712 8.32842712,8 7.5,8 Z M11.5,8 C10.6715729,8 10,7.32842712 10,6.5 C10,5.67157288 10.6715729,5 11.5,5 C12.3284271,5 13,5.67157288 13,6.5 C13,7.32842712 12.3284271,8 11.5,8 Z"
				      id = "Combined-Shape"></path>
			</g>
		</g>
	</g>
</svg>