<?xml version="1.0" encoding="UTF-8"?>
<svg width = "36px"
     height = "36px"
     viewBox = "0 0 36 36"
     version = "1.1"
     xmlns = "http://www.w3.org/2000/svg"
     xmlns:xlink = "http://www.w3.org/1999/xlink">
	<title>编组 3</title>
	<g id = "控件"
	   stroke = "none"
	   stroke-width = "1"
	   fill = "none"
	   fill-rule = "evenodd">
		<g id = "编组-3"
		   fill = "#FBCC30">
			<rect id = "矩形"
			      opacity = "0.3"
			      x = "0"
			      y = "0"
			      width = "36"
			      height = "36"
			      rx = "10"></rect>
			<path d = "M21,9 C21.8284271,9 22.5,9.67157288 22.5,10.5 L22.5,13.499 L25.5,13.5 C26.3284271,13.5 27,14.1715729 27,15 C27,15.8284271 26.3284271,16.5 25.5,16.5 L22.5,16.5 L22.5,19.5 L25.5,19.5 C26.3284271,19.5 27,20.1715729 27,21 C27,21.8284271 26.3284271,22.5 25.5,22.5 L22.5,22.5 L22.5,25.5 C22.5,26.3284271 21.8284271,27 21,27 C20.1715729,27 19.5,26.3284271 19.5,25.5 L19.5,22.5 L16.5,22.5 L16.5,25.5 C16.5,26.3284271 15.8284271,27 15,27 C14.1715729,27 13.5,26.3284271 13.5,25.5 L13.5,22.5 L10.5,22.5 C9.67157288,22.5 9,21.8284271 9,21 C9,20.1715729 9.67157288,19.5 10.5,19.5 L13.5,19.5 L13.5,16.5 L10.5,16.5 C9.67157288,16.5 9,15.8284271 9,15 C9,14.1715729 9.67157288,13.5 10.5,13.5 L13.5,13.5 L13.5,10.5 C13.5,9.67157288 14.1715729,9 15,9 C15.8284271,9 16.5,9.67157288 16.5,10.5 L16.5,13.5 L19.5,13.499 L19.5,10.5 C19.5,9.67157288 20.1715729,9 21,9 Z M19.5,16.5 L16.5,16.5 L16.5,19.5 L19.5,19.5 L19.5,16.5 Z"
			      id = "形状结合"></path>
		</g>
	</g>
</svg>