<?xml version="1.0" encoding="UTF-8"?>
<svg width = "24px"
     height = "24px"
     viewBox = "0 0 24 24"
     version = "1.1"
     xmlns = "http://www.w3.org/2000/svg"
     xmlns:xlink = "http://www.w3.org/1999/xlink">
	<title>icon-关注-on</title>
	<g id = "icon-关注-on"
	   stroke = "none"
	   stroke-width = "1"
	   fill = "none"
	   fill-rule = "evenodd">
		<rect id = "bound"
		      x = "0"
		      y = "0"
		      width = "24"
		      height = "24"></rect>
		<path d = "M8.8050254,5.00006526 C7.49179447,5.01053105 6.38967565,6.09449054 6.39999527,7.40644952 L6.39263554,7.54326041 C5.16052158,8.02404244 4.89989132,9.0127815 4.77501599,9.70475564 L4.09376144,14.6030046 C4.09376144,14.6030046 3.99944497,15.4581727 4.00000246,15.8013598 C4.00328482,17.8028851 5.61178472,19.3996254 7.60003043,19.3996254 C9.58819614,19.3996254 11.2000079,17.7884856 11.2000079,15.8013598 C11.2000079,15.7045635 11.2000079,15.450173 11.2000079,15.4021748 C11.2000079,15.0245889 11.2000079,13.4214488 11.2000079,13.0030644 C11.2000079,12.5614809 11.5581545,12.2038943 11.999978,12.2038943 C12.4418015,12.2038943 12.8000281,12.5614809 12.8000281,13.0030644 C12.8000281,13.4214488 12.8000281,15.0245889 12.8000281,15.4021748 C12.8000281,15.450173 12.8000281,15.7045635 12.8000281,15.8013598 C12.8000281,17.7884856 14.4118079,19.3996254 16.3999736,19.3996254 C18.3882193,19.3996254 19.9981592,17.8148846 20.0000025,15.8013598 C20.0002391,15.4829717 19.9050426,14.6134042 19.9050426,14.6134042 L19.2249881,9.67994857 C19.2052288,9.45595694 19.1277917,9.11516967 18.9499583,8.75517513 C18.8962803,8.64717916 18.8441223,8.55441463 18.7750049,8.4560183 C18.476456,8.03043421 18.0640714,7.71444601 17.6049686,7.54965217 L17.6000088,7.40644952 C17.6103284,6.11128992 16.5176492,5.01614684 15.2044983,5.00574722 C13.9527051,4.99614758 12.8053079,6.05609998 12.7950683,7.42084898 L11.2024078,7.40805746 C11.198088,6.02650908 10.0567386,4.99053179 8.8050254,5.00006526 Z M7.60002516,13.8030345 C8.70454916,13.8030345 9.5999557,14.6974011 9.5999557,15.8013598 C9.5999557,16.9053186 8.70454916,17.8004851 7.60002516,17.8004851 C6.4954317,17.8004851 5.60002516,16.9053186 5.60002516,15.8013598 C5.60002516,14.6974011 6.4954317,13.8030345 7.60002516,13.8030345 Z M16.3999683,13.8030345 C17.5045723,13.8030345 18.3999789,14.6974011 18.3999789,15.8013598 C18.3999789,16.9053186 17.5045723,17.8004851 16.3999683,17.8004851 C15.2954549,17.8004851 14.3999683,16.9053186 14.3999683,15.8013598 C14.3999683,14.6974011 15.2954549,13.8030345 16.3999683,13.8030345 Z"
		      id = "形状"
		      fill = "#0167F9"
		      fill-rule = "nonzero"></path>
	</g>
</svg>