<?xml version="1.0" encoding="UTF-8"?>
<svg width = "24px"
     height = "24px"
     viewBox = "0 0 24 24"
     version = "1.1"
     xmlns = "http://www.w3.org/2000/svg"
     xmlns:xlink = "http://www.w3.org/1999/xlink">
	<title>编组 14</title>
	<g id = "控件"
	   stroke = "none"
	   stroke-width = "1"
	   fill = "none"
	   fill-rule = "evenodd">
		<g id = "分享-底部"
		   transform = "translate(-86.000000, -25.000000)">
			<g id = "编组-14"
			   transform = "translate(86.000000, 25.000000)">
				<rect id = "矩形"
				      x = "0"
				      y = "0"
				      width = "24"
				      height = "24"></rect>
				<g id = "download"
				   transform = "translate(1.000000, 0.000000)"
				   fill = "#212121"
				   fill-rule = "nonzero">
					<path d = "M11.3684211,0 C10.6105263,0 10.1052632,0.505263158 10.1052632,1.26315789 L10.1052632,14.6526316 L7.2,11.7473684 C6.69473684,11.2421053 5.93684211,11.2421053 5.43157895,11.7473684 L5.43157895,11.7473684 C4.92631579,12.2526316 4.92631579,13.0105263 5.43157895,13.5157895 L10.4842105,18.5684211 C10.9894737,19.0736842 11.7473684,19.0736842 12.2526316,18.5684211 L17.3052632,13.5157895 C17.8105263,13.0105263 17.8105263,12.2526316 17.3052632,11.7473684 L17.3052632,11.7473684 C16.8,11.2421053 16.0421053,11.2421053 15.5368421,11.7473684 L12.6315789,14.6526316 L12.6315789,1.26315789 C12.6315789,0.505263158 12,0 11.3684211,0 Z M1.26315789,15.1578947 C0.505263158,15.1578947 0,15.6631579 0,16.4210526 L0,18.9473684 C0,21.7263158 2.27368421,24 5.05263158,24 L17.6842105,24 C20.4631579,24 22.7368421,21.7263158 22.7368421,18.9473684 L22.7368421,16.4210526 C22.7368421,15.6631579 22.2315789,15.1578947 21.4736842,15.1578947 C20.7157895,15.1578947 20.2105263,15.6631579 20.2105263,16.4210526 L20.2105263,18.9473684 C20.2105263,20.3368421 19.0736842,21.4736842 17.6842105,21.4736842 L5.05263158,21.4736842 C3.66315789,21.4736842 2.52631579,20.3368421 2.52631579,18.9473684 L2.52631579,16.4210526 C2.52631579,15.6631579 1.89473684,15.1578947 1.26315789,15.1578947 Z"
					      id = "形状"></path>
				</g>
			</g>
		</g>
	</g>
</svg>