<?xml version="1.0" encoding="UTF-8"?>
<svg width = "32px"
     height = "32px"
     viewBox = "0 0 32 32"
     version = "1.1"
     xmlns = "http://www.w3.org/2000/svg"
     xmlns:xlink = "http://www.w3.org/1999/xlink">
	<title>icon-like-瀑布流</title>
	<defs>
		<radialGradient cx = "95.3552777%"
		                cy = "14.3572459%"
		                fx = "95.3552777%"
		                fy = "14.3572459%"
		                r = "137.229932%"
		                gradientTransform = "translate(0.953553,0.143572),scale(1.000000,0.819160),rotate(128.742503),translate(-0.953553,-0.143572)"
		                id = "radialGradient-1">
			<stop stop-color = "#FFD840"
			      offset = "0%"></stop>
			<stop stop-color = "#F3ACFF"
			      offset = "55.8578043%"></stop>
			<stop stop-color = "#8AECFF"
			      offset = "100%"></stop>
		</radialGradient>
		<radialGradient cx = "95.3552777%"
		                cy = "14.3572459%"
		                fx = "95.3552777%"
		                fy = "14.3572459%"
		                r = "211.190048%"
		                gradientTransform = "translate(0.953553,0.143572),scale(1.000000,0.454436),rotate(113.994863),translate(-0.953553,-0.143572)"
		                id = "radialGradient-2">
			<stop stop-color = "#FFD840"
			      offset = "0%"></stop>
			<stop stop-color = "#F3ACFF"
			      offset = "55.8578043%"></stop>
			<stop stop-color = "#8AECFF"
			      offset = "100%"></stop>
		</radialGradient>
	</defs>
	<g id = "icon-like-瀑布流"
	   stroke = "none"
	   stroke-width = "1"
	   fill = "none"
	   fill-rule = "evenodd">
		<circle id = "Oval-5备份"
		        fill-opacity = "0.4"
		        fill = "#212121"
		        cx = "16"
		        cy = "16"
		        r = "16"></circle>
		<g id = "编组"
		   transform = "translate(7.000000, 9.000000)">
			<path d = "M6.53175806,4.66666667 L6.53175806,13.0666667 L8.40719326,13.6919625 C9.01911548,13.8959858 9.65993346,14 10.3049717,14 L13.0635161,14 C15.2337436,14 17.102252,12.4681171 17.52777,10.3400142 L17.7290576,9.33333333 C18.1236201,7.36004493 16.8438099,5.44052249 14.8705215,5.04595996 C14.5557239,4.98301562 14.2339882,4.96194971 13.9136707,4.98330936 L11.6638537,5.13333333 L11.6638537,5.13333333 L12.0037186,1.39391707 C12.0676163,0.690873352 11.549486,0.0691445257 10.8464423,0.00524687064 C10.8079758,0.00175075352 10.7693705,-7.09531807e-18 10.7307454,0 C9.86241289,1.59510091e-16 9.05776441,0.45564075 8.61109024,1.20027724 L6.53175806,4.66666667 L6.53175806,4.66666667 Z"
			      id = "Path-42"
			      fill = "url(#radialGradient-1)"></path>
			<rect id = "Rectangle-153"
			      fill = "url(#radialGradient-2)"
			      x = "0"
			      y = "3.73333333"
			      width = "4.66554147"
			      height = "10.2666667"
			      rx = "2"></rect>
		</g>
	</g>
</svg>