<?xml version="1.0" encoding="UTF-8"?>
<svg width = "36px"
     height = "36px"
     viewBox = "0 0 36 36"
     version = "1.1"
     xmlns = "http://www.w3.org/2000/svg"
     xmlns:xlink = "http://www.w3.org/1999/xlink">
	<title>Button / Control / Text / 描边-off</title>
	<g id = "Button-/-Control-/-Text-/-描边-off"
	   stroke = "none"
	   stroke-width = "1"
	   fill = "none"
	   fill-rule = "evenodd">
		<path d = "M17.9692308,10 C19.8547692,10 20.6769231,11.0153846 21.0350769,11.8658462 C21.3636923,12.544 21.9015385,13.7636923 22.4689231,15.0510769 C22.8812308,15.9852308 23.3095385,16.9575385 23.6984615,17.808 L23.7452308,17.8929231 C23.8289231,18.0504615 23.9175385,18.2203077 23.9852308,18.3704615 C24.7236923,20.0073846 25.1618462,20.9403077 25.6209231,21.8547692 C25.7932308,22.1870769 26,22.6744615 26,23.328 C26,24.8012308 24.6153846,26 22.9132308,26 C21.6295385,26 20.6941538,25.4141538 20.1341538,24.2609231 C19.8621538,23.6529231 19.6566154,23.1889231 19.4978462,22.8270769 C19.2105846,22.8256 18.8976246,22.8250092 18.5666757,22.8247729 L16.432,22.8246154 C16.2486154,23.2553846 16.0504615,23.7181538 15.8843077,24.08 C15.6652308,24.5526154 15.0055385,25.9815385 13.1483077,25.9815385 C11.3243077,25.9815385 10,24.8135385 10,23.2036923 C10,22.4147692 10.2941538,21.808 10.5698462,21.3009231 C11.3218462,19.7870769 12.048,18.2781538 12.3827692,17.584 L12.5452308,17.248 C12.6547692,16.9993846 12.8393846,16.5956923 13.0892308,16.0529231 C13.5150769,15.1261538 14.1341538,13.7809231 15.0227692,11.792 C15.5175385,10.7003077 16.6732308,10 17.9692308,10 Z M17.9697231,11.8461538 C17.4404923,11.8461538 16.9112615,12.0972308 16.7081846,12.5452308 C15.3038769,15.6861538 14.5728,17.2283077 14.2060308,18.0541538 C14.0226462,18.4307692 13.1488,20.2609231 12.1924923,22.1796923 C11.9684923,22.592 11.8466462,22.88 11.8466462,23.2036923 C11.8466462,23.8843077 12.5371077,24.1353846 13.1488,24.1353846 C13.7592615,24.1353846 13.9820308,23.7944615 14.2060308,23.3095385 C14.5518769,22.5563077 15.0404923,21.3550769 15.2238769,20.9784615 L15.2238769,20.9784615 L18.4676889,20.9787179 C19.4185436,20.9796581 20.2339282,20.9835897 20.7364923,20.9969231 C20.7771077,21.1569231 21.1635692,22.0369231 21.7937231,23.4547692 C22.0386462,23.9569231 22.3032615,24.1538462 22.9137231,24.1538462 C23.6251077,24.1538462 24.1543385,23.7058462 24.1543385,23.328 C24.1543385,23.0769231 24.0718769,22.88 23.9709538,22.6830769 C23.5032615,21.7501538 23.0552615,20.7987692 22.3032615,19.1298462 C22.2220308,18.9501538 22.0989538,18.736 22.0177231,18.5735385 C21.1020308,16.5649231 19.9635692,13.8916923 19.3321846,12.5821538 C19.1291077,12.0972308 18.7635692,11.8461538 17.9697231,11.8461538 Z M18.0103385,14.2683077 C18.4164923,15.3083077 19.6780308,18.4123077 20.0644923,19.3624615 C18.7541626,19.3914725 17.5061375,19.3976892 16.5580209,19.3990213 L15.8540308,19.3993846 C16.5654154,17.7304615 17.5020308,15.5963077 18.0103385,14.2683077 Z"
		      id = "形状结合"
		      fill = "#212121"></path>
	</g>
</svg>