<?xml version="1.0" encoding="UTF-8"?>
<svg width="24px" height="24px" viewBox="0 0 24 24" version="1.1" xmlns="http://www.w3.org/2000/svg" xmlns:xlink="http://www.w3.org/1999/xlink">
    <title>icon_setting</title>
    <g id="icon_setting" stroke="none" stroke-width="1" fill="none" fill-rule="evenodd">
        <path d="M8.969,2.54457809 C7.551,2.99457809 6.328,3.72857809 5.25,4.73257809 C4.917,5.04257809 4.81501,5.55057809 5.03101,5.95057809 C5.83201,7.43157809 4.994,9.01657809 3.187,9.10757809 C2.745,9.12957809 2.354,9.45758809 2.25,9.88858809 C2.071,10.6336081 2,11.2576081 2,12.0756081 C2,12.7626081 2.074,13.5406081 2.219,14.2326081 C2.309,14.6646081 2.685,14.9756081 3.125,15.0136081 C4.943,15.1706081 5.84301,16.5576081 5.03101,18.3256081 C4.85101,18.7186081 4.933,19.1886081 5.25,19.4826081 C6.312,20.4646081 7.532,21.1576081 8.969,21.6076081 C9.379,21.7356081 9.842,21.5806081 10.09398,21.2326081 C11.20598,19.6936081 12.81898,19.6886081 13.87498,21.2326081 C14.12398,21.5956081 14.57998,21.7706081 14.99998,21.6386081 C16.38698,21.2016081 17.67898,20.4586081 18.74998,19.4826081 C19.07998,19.1816081 19.16698,18.6946081 18.96898,18.2946081 C18.13698,16.6156081 19.09398,15.0746081 20.81198,15.0446081 C21.26798,15.0366081 21.67398,14.7376081 21.78098,14.2946081 C21.95398,13.5776081 21.99998,12.9536081 21.99998,12.0756081 C21.99998,11.3216081 21.91098,10.5786081 21.74998,9.85757809 C21.64798,9.40057809 21.24898,9.07657809 20.78098,9.07557809 C19.08998,9.07257809 18.14198,7.41057809 18.96898,5.95057809 C19.19898,5.54457809 19.12698,5.04657809 18.78098,4.73257809 C17.69098,3.74257809 16.36198,2.96857809 14.96898,2.54457809 C14.54098,2.41457809 14.08598,2.57457809 13.84398,2.95057809 C12.87798,4.45157809 11.07398,4.47757809 10.12498,2.98257809 C9.882,2.59857809 9.401,2.40757809 8.969,2.54457809 Z M15.04698,4.66857809 C15.72998,4.95457809 16.26898,5.25358809 16.88798,5.72258809 C16.16198,8.01958809 17.39298,10.4056081 19.94298,10.9866081 C20.00598,11.3996081 19.99998,11.6496081 19.99998,12.0756081 C19.99998,12.5846081 20.00698,12.7636081 19.94898,13.1316081 C17.40998,13.6576081 16.15398,15.9766081 16.86098,18.4276081 C16.25298,18.8686081 15.81798,19.1746081 15.05498,19.4696081 C13.26298,17.6456081 10.77498,17.5656081 8.94501,19.4816081 C8.23101,19.1676081 7.68202,18.8886081 7.12702,18.4196081 C7.81502,15.9306081 6.65201,13.7816081 4.07001,13.1296081 C3.95501,12.6736081 4.001,11.3856081 4.067,10.9946081 C6.737,10.3546081 7.78901,7.99157809 7.12601,5.71557809 C7.71201,5.27457809 8.23901,4.95358809 8.92401,4.67558809 C10.64898,6.43058809 13.23898,6.60558809 15.04698,4.66857809 Z M11.99998,8.07557809 C9.791,8.07557809 8,9.86657809 8,12.0756081 C8,14.2856081 9.791,16.0756081 11.99998,16.0756081 C14.20898,16.0756081 15.99998,14.2856081 15.99998,12.0756081 C15.99998,9.86657809 14.20898,8.07557809 11.99998,8.07557809 Z M11.99998,10.0755781 C13.10498,10.0755781 13.99998,10.9716081 13.99998,12.0756081 C13.99998,13.1806081 13.10498,14.0756081 11.99998,14.0756081 C10.89498,14.0756081 10,13.1806081 10,12.0756081 C10,10.9716081 10.89498,10.0755781 11.99998,10.0755781 Z" id="形状" fill="#212121" fill-rule="nonzero"></path>
    </g>
</svg>