<?xml version="1.0" encoding="UTF-8"?>
<svg width = "36px"
     height = "36px"
     viewBox = "0 0 36 36"
     version = "1.1"
     xmlns = "http://www.w3.org/2000/svg"
     xmlns:xlink = "http://www.w3.org/1999/xlink">
	<title>Button / Control / Text / 投影-off</title>
	<defs>
		<path d = "M11,23.9183673 C11,23.5510204 11.138843,23.2244898 11.3933884,22.755102 C12.4809917,20.5714286 13.4760331,18.4897959 13.6842975,18.0612245 C14.1008264,17.122449 14.9338843,15.3673469 16.5305785,11.7959184 C16.7619835,11.2857143 17.3636364,11 17.9652893,11 C18.8677686,11 19.2842975,11.2857143 19.5157025,11.8367347 C20.2330579,13.3265306 21.5289256,16.3673469 22.5702479,18.6530612 C22.6628099,18.8367347 22.8016529,19.0816327 22.8942149,19.2857143 C23.7504132,21.1836735 24.2595041,22.2653061 24.7917355,23.3265306 C24.907438,23.5510204 25,23.7755102 25,24.0612245 C25,24.4897959 24.3983471,25 23.5884298,25 C22.8942149,25 22.5933884,24.7755102 22.3157025,24.2040816 C21.5983471,22.5918367 21.1586777,21.5918367 21.1123967,21.4081633 C20.3024793,21.3877551 18.7752066,21.3877551 17.1090909,21.3877551 L14.8413223,21.3877551 C14.6330579,21.8163265 14.077686,23.1836735 13.6842975,24.0408163 C13.4297521,24.5918367 13.1752066,24.9795918 12.4809917,24.9795918 C11.7867769,24.9795918 11,24.6938776 11,23.9183673 Z M18.0115702,13.755102 C17.4330579,15.2653061 16.368595,17.6938776 15.5586777,19.5918367 C16.6694215,19.5918367 18.4512397,19.5918367 20.3487603,19.5510204 C19.9090909,18.4693878 18.4743802,14.9387755 18.0115702,13.755102 Z"
		      id = "path-1"></path>
		<filter x = "-28.6%"
		        y = "-28.6%"
		        width = "171.4%"
		        height = "171.4%"
		        filterUnits = "objectBoundingBox"
		        id = "filter-2">
			<feOffset dx = "1"
			          dy = "1"
			          in = "SourceAlpha"
			          result = "shadowOffsetOuter1"></feOffset>
			<feGaussianBlur stdDeviation = "1.5"
			                in = "shadowOffsetOuter1"
			                result = "shadowBlurOuter1"></feGaussianBlur>
			<feColorMatrix values = "0 0 0 0 0   0 0 0 0 0   0 0 0 0 0  0 0 0 0.5 0"
			               type = "matrix"
			               in = "shadowBlurOuter1"></feColorMatrix>
		</filter>
	</defs>
	<g id = "Button-/-Control-/-Text-/-投影-off"
	   stroke = "none"
	   stroke-width = "1"
	   fill = "none"
	   fill-rule = "evenodd">
		<g id = "A"
		   fill-rule = "nonzero">
			<use fill = "black"
			     fill-opacity = "1"
			     filter = "url(#filter-2)"
			     xlink:href = "#path-1"></use>
			<use fill = "#212121"
			     xlink:href = "#path-1"></use>
		</g>
	</g>
</svg>