<?xml version="1.0" encoding="UTF-8"?>
<svg width="20px" height="20px" viewBox="0 0 20 20" version="1.1" xmlns="http://www.w3.org/2000/svg" xmlns:xlink="http://www.w3.org/1999/xlink">
    <title>Shape</title>
    <g id="æ§ä»¶" stroke="none" stroke-width="1" fill="none" fill-rule="evenodd">
        <g id="icon-/-Search" transform="translate(-2.000000, -2.000000)" fill="#212121">
            <path d="M11.6113614,1.99982692 C6.30336136,1.99982692 2.00036136,6.20782692 2.00036136,11.3998269 C2.00036136,16.5898269 6.30336136,20.7988269 11.6113614,20.7988269 C13.8813614,20.7988269 15.9683614,20.0288269 17.6133614,18.7408269 L20.7373614,21.7888269 L20.8203614,21.8588269 C21.1103614,22.0688269 21.5213614,22.0448269 21.7843614,21.7868269 C21.9223564,21.652293 22.0000127,21.4676264 21.9996373,21.2749041 C21.9992591,21.0821818 21.9208814,20.8978203 21.7823614,20.7638269 L18.6953614,17.7518269 C20.3182428,16.0345937 21.2227228,13.7615867 21.2233614,11.3988269 C21.2233614,6.20982692 16.9203614,1.99982692 11.6123614,1.99982692 L11.6113614,1.99982692 Z M11.6113614,3.44782692 C16.1023614,3.44782692 19.7433614,7.00782692 19.7433614,11.3988269 C19.7433614,15.7908269 16.1033614,19.3508269 11.6123614,19.3508269 C7.12136136,19.3508269 3.48036136,15.7898269 3.48036136,11.3988269 C3.48036136,7.00782692 7.12036136,3.44782692 11.6113614,3.44782692 Z" id="Shape"></path>
        </g>
    </g>
</svg>