<?xml version="1.0" encoding="UTF-8"?>
<svg width = "36px"
     height = "36px"
     viewBox = "0 0 36 36"
     version = "1.1"
     xmlns = "http://www.w3.org/2000/svg"
     xmlns:xlink = "http://www.w3.org/1999/xlink">
	<title>Magic</title>
	<defs>
		<radialGradient cx = "2.82812454e-12%"
		                cy = "4.23309521e-12%"
		                fx = "2.82812454e-12%"
		                fy = "4.23309521e-12%"
		                r = "369.253215%"
		                gradientTransform = "translate(0.000000,0.000000),scale(0.272727,1.000000),rotate(6.785622),translate(-0.000000,-0.000000)"
		                id = "radialGradient-1">
			<stop stop-color = "#FFD840"
			      offset = "0%"></stop>
			<stop stop-color = "#F3ACFF"
			      offset = "55.8578043%"></stop>
			<stop stop-color = "#48E1FF"
			      offset = "100%"></stop>
		</radialGradient>
		<radialGradient cx = "2.82812454e-12%"
		                cy = "4.23309521e-12%"
		                fx = "2.82812454e-12%"
		                fy = "4.23309521e-12%"
		                r = "109.103128%"
		                id = "radialGradient-2">
			<stop stop-color = "#FFD840"
			      offset = "0%"></stop>
			<stop stop-color = "#F3ACFF"
			      offset = "55.8578043%"></stop>
			<stop stop-color = "#48E1FF"
			      offset = "100%"></stop>
		</radialGradient>
	</defs>
	<g id = "注册&amp;登录"
	   stroke = "none"
	   stroke-width = "1"
	   fill = "none"
	   fill-rule = "evenodd">
		<g id = "注册设置-徽章-随机"
		   transform = "translate(-50.000000, -525.000000)">
			<g id = "编组-7"
			   transform = "translate(0.000000, 513.000000)">
				<g id = "Magic"
				   transform = "translate(50.000000, 12.000000)">
					<rect id = "bound"
					      x = "0"
					      y = "0"
					      width = "36"
					      height = "36"></rect>
					<path d = "M1.5,18 L1.5,21 L9,21 L9,18 L1.5,18 Z M0,15 L30,15 C30.8284271,15 31.5,15.6715729 31.5,16.5 L31.5,22.5 C31.5,23.3284271 30.8284271,24 30,24 L0,24 C-0.828427125,24 -1.5,23.3284271 -1.5,22.5 L-1.5,16.5 C-1.5,15.6715729 -0.828427125,15 0,15 Z"
					      id = "Rectangle-154"
					      fill = "url(#radialGradient-1)"
					      fill-rule = "nonzero"
					      transform = "translate(15.000000, 19.500000) rotate(-225.000000) translate(-15.000000, -19.500000) "></path>
					<path d = "M33.75,19.5 C34.1642136,19.5 34.5,19.8357864 34.5,20.25 L34.5,21.75 C34.5,22.1642136 34.1642136,22.5 33.75,22.5 L32.25,22.5 C31.8357864,22.5 31.5,22.1642136 31.5,21.75 L31.5,20.25 C31.5,19.8357864 31.8357864,19.5 32.25,19.5 L33.75,19.5 Z M27.75,18 C28.1642136,18 28.5,18.3357864 28.5,18.75 L28.5,20.25 C28.5,20.6642136 28.1642136,21 27.75,21 L26.25,21 C25.8357864,21 25.5,20.6642136 25.5,20.25 L25.5,18.75 C25.5,18.3357864 25.8357864,18 26.25,18 L27.75,18 Z M32.25,13.5 C32.6642136,13.5 33,13.8357864 33,14.25 L33,15.75 C33,16.1642136 32.6642136,16.5 32.25,16.5 L30.75,16.5 C30.3357864,16.5 30,16.1642136 30,15.75 L30,14.25 C30,13.8357864 30.3357864,13.5 30.75,13.5 L32.25,13.5 Z"
					      id = "Combined-Shape"
					      fill = "url(#radialGradient-2)"
					      opacity = "0.3"></path>
				</g>
			</g>
		</g>
	</g>
</svg>