<?xml version="1.0" encoding="UTF-8"?>
<svg width = "36px"
     height = "36px"
     viewBox = "0 0 36 36"
     version = "1.1"
     xmlns = "http://www.w3.org/2000/svg"
     xmlns:xlink = "http://www.w3.org/1999/xlink">
	<title>icon-添加big</title>
	<g id = "控件"
	   stroke = "none"
	   stroke-width = "1"
	   fill = "none"
	   fill-rule = "evenodd">
		<g id = "图库-添加"
		   transform = "translate(-66.000000, -59.000000)"
		   fill = "#FFFFFF"
		   fill-rule = "nonzero">
			<g id = "编组"
			   transform = "translate(41.500000, 59.000000)">
				<g transform = "translate(24.500000, 0.000000)"
				   id = "路径">
					<path d = "M17.99998,0 C16.8959788,0 15.9999778,0.896000498 15.9999778,2 L15.9999778,15.9999889 L2,15.9999889 C0.896000996,15.9999889 0,16.8959894 0,17.99999 C0,19.1039906 0.896000996,20 2,20 L15.9999778,20 L15.9999778,34 C15.9999778,35.1039995 16.8959788,36 17.99998,36 C19.1039812,36 19.9999822,35.1039995 19.9999822,34 L19.9999822,20 L34,20 C35.103999,20 36,19.1039906 36,17.99999 C36,16.8959894 35.103999,15.9999889 34,15.9999889 L19.9999822,15.9999889 L19.9999822,2 C19.9999822,0.896000498 19.1039812,0 17.99998,0 Z"></path>
				</g>
			</g>
		</g>
	</g>
</svg>