<?xml version="1.0" encoding="UTF-8"?>
<svg width = "36px"
     height = "36px"
     viewBox = "0 0 36 36"
     version = "1.1"
     xmlns = "http://www.w3.org/2000/svg"
     xmlns:xlink = "http://www.w3.org/1999/xlink">
	<title>Shuffle备份</title>
	<defs>
		<radialGradient cx = "95.3552777%"
		                cy = "14.3572459%"
		                fx = "95.3552777%"
		                fy = "14.3572459%"
		                r = "157.264428%"
		                gradientTransform = "translate(0.953553,0.143572),scale(0.657819,1.000000),rotate(146.115309),translate(-0.953553,-0.143572)"
		                id = "radialGradient-1">
			<stop stop-color = "#FFD840"
			      offset = "0%"></stop>
			<stop stop-color = "#F3ACFF"
			      offset = "55.8578043%"></stop>
			<stop stop-color = "#8AECFF"
			      offset = "100%"></stop>
		</radialGradient>
		<radialGradient cx = "95.3552777%"
		                cy = "14.3572459%"
		                fx = "95.3552777%"
		                fy = "14.3572459%"
		                r = "158.02266%"
		                gradientTransform = "translate(0.953553,0.143572),scale(0.653254,1.000000),rotate(146.299741),translate(-0.953553,-0.143572)"
		                id = "radialGradient-2">
			<stop stop-color = "#FFD840"
			      offset = "0%"></stop>
			<stop stop-color = "#F3ACFF"
			      offset = "55.8578043%"></stop>
			<stop stop-color = "#8AECFF"
			      offset = "100%"></stop>
		</radialGradient>
	</defs>
	<g id = "注册&amp;登录"
	   stroke = "none"
	   stroke-width = "1"
	   fill = "none"
	   fill-rule = "evenodd">
		<g id = "注册设置-徽章-随机"
		   transform = "translate(-233.000000, -527.000000)">
			<g id = "编组-4"
			   transform = "translate(195.000000, 513.000000)">
				<g id = "编组-2"
				   transform = "translate(38.000000, 12.000000)">
					<g id = "Shuffle备份"
					   transform = "translate(0.000000, 2.000000)">
						<rect id = "bound"
						      x = "0"
						      y = "0"
						      width = "36"
						      height = "36"></rect>
						<path d = "M6.83187146,9 C9.60918535,9 12.2309356,10.2822556 13.9360414,12.4745345 L19.9320152,20.1836437 C21.0687524,21.6451629 22.8165859,22.5 24.6681285,22.5 L27,22.5 L27,20.2161228 C27,20.0340537 27.0662301,19.8582013 27.1863364,19.721367 C27.4595825,19.4100642 27.933453,19.3792131 28.2447558,19.6524592 L28.2447558,19.6524592 L32.6471982,23.5167038 C32.6722229,23.5386693 32.6957571,23.5622769 32.7176445,23.58737 C32.9899195,23.8995225 32.9575923,24.3732946 32.6454398,24.6455696 L32.6454398,24.6455696 L28.2429975,28.4855991 C28.106396,28.6047497 27.9312646,28.6703969 27.75,28.6703969 C27.3357864,28.6703969 27,28.3346105 27,27.9203969 L27,27.9203969 L27,25.5 L24.6681285,25.5 C21.8908146,25.5 19.2690644,24.2177444 17.5639586,22.0254655 L11.5679848,14.3163563 C10.4312476,12.8548371 8.68341406,12 6.83187146,12 L3,12 L3,9 L6.83187146,9 Z"
						      id = "Combined-Shape"
						      fill = "url(#radialGradient-1)"
						      fill-rule = "nonzero"
						      opacity = "0.3"></path>
						<path d = "M27.1863364,6.22136772 C27.4595825,5.9100649 27.933453,5.87921384 28.2447558,6.15245995 L28.2447558,6.15245995 L32.6471982,10.0167046 C32.6722229,10.03867 32.6957571,10.0622776 32.7176445,10.0873707 C32.9899195,10.3995232 32.9575923,10.8732953 32.6454398,11.1455703 L32.6454398,11.1455703 L28.2429975,14.9855998 C28.106396,15.1047504 27.9312646,15.1703976 27.75,15.1703976 C27.3357864,15.1703976 27,14.8346112 27,14.4203976 L27,14.4203976 L27,12 L24.6681285,12 C22.8165859,12 21.0687524,12.8548371 19.9320152,14.3163563 L19.9320152,14.3163563 L13.9360414,22.0254655 C12.2309356,24.2177444 9.60918535,25.5 6.83187146,25.5 L6.83187146,25.5 L3,25.5 L3,22.5 L6.83187146,22.5 C8.68341406,22.5 10.4312476,21.6451629 11.5679848,20.1836437 L11.5679848,20.1836437 L17.5639586,12.4745345 C19.2690644,10.2822556 21.8908146,9 24.6681285,9 L24.6681285,9 L27,9 L27,6.71612355 C27,6.53405445 27.0662301,6.35820202 27.1863364,6.22136772 Z"
						      id = "Combined-Shape"
						      fill = "url(#radialGradient-2)"
						      fill-rule = "nonzero"></path>
					</g>
				</g>
			</g>
		</g>
	</g>
</svg>