<?xml version="1.0" encoding="UTF-8"?>
<svg width = "36px"
     height = "36px"
     viewBox = "0 0 36 36"
     version = "1.1"
     xmlns = "http://www.w3.org/2000/svg"
     xmlns:xlink = "http://www.w3.org/1999/xlink">
	<title>bar-icon-图库-white</title>
	<g id = "bar-icon-图库-white"
	   stroke = "none"
	   stroke-width = "1"
	   fill = "none"
	   fill-rule = "evenodd">
		<rect id = "bound"
		      x = "0"
		      y = "0"
		      width = "24"
		      height = "24"></rect>
		<path d = "M8.00001778,0 C3.58200796,0 0,3.58200398 0,8 L0,25.9999889 L0,28 C0,32.417996 3.58200796,36 8.00001778,36 L27.9999822,36 C32.417992,36 36,32.417996 36,28 L36,25.9999889 L36,8 C36,3.58200398 32.417992,0 27.9999822,0 L8.00001778,0 Z M8.00001778,4.00000444 L27.9999822,4.00000444 C30.2099871,4.00000444 31.9999911,5.79000643 31.9999911,8.00000444 L32.0079911,20.3919827 C30.4519877,18.9479811 28.8659841,18.04398 27.1239803,17.99998 C27.0619801,17.99798 27.0639801,17.99998 26.99998,17.99998 C24.7259749,17.99998 22.1979693,19.7479819 20.4999656,21.9379844 C20.0659646,20.9579833 19.6279636,19.9899822 19.1239625,19.0619812 C16.7639573,14.7039763 14.1859515,12.0060133 11.0000244,12.0000044 C8.29201843,11.9940133 5.96801326,14.2079758 3.98400885,17.2399792 L4.00000889,8.00000444 C4.00000889,5.79000643 5.79001287,4.00000444 8.00001778,4.00000444 Z M25.9999733,8.00000889 C24.8959753,8.00000889 23.9999733,8.89600988 23.9999733,10.0000089 C23.9999733,11.1040123 24.8959753,12.0000089 25.9999733,12.0000089 C27.1039802,12.0000089 27.9999733,11.1040123 27.9999733,10.0000089 C27.9999733,8.89600988 27.1039802,8.00000889 25.9999733,8.00000889 Z M11.0000244,15.9999761 C12.164007,16.0019778 13.932051,17.8139798 15.6239547,20.9379833 C16.2959562,22.1739846 16.8979576,23.5359862 17.4379588,24.8759876 C17.7619595,25.6759885 18.01196,26.2879892 18.1239603,26.6239896 C18.6699615,28.2579914 20.8859664,28.4899917 21.7499683,26.99999 C21.8359685,26.8519898 21.9919689,26.5679895 22.2499694,26.1879891 C22.6819704,25.5479884 23.1739715,24.8999877 23.6879726,24.311987 C24.9719755,22.8399854 26.2099782,21.9999761 26.99998,21.9999761 C27.7979818,22.0199845 29.0299845,22.8579854 30.3119874,24.311987 C30.8319885,24.9019877 31.3119896,25.5479884 31.7499906,26.1879891 C31.8879909,26.3879893 31.9079909,26.4819894 31.9999911,26.6239896 L31.9999911,27.9999911 C31.9999911,30.2099936 30.2099871,31.9999956 27.9999822,31.9999956 L8.00000889,31.9999956 C5.79001287,31.9999956 4.00000889,30.2099936 4.00000889,27.9999911 L4.00000889,26.3119892 C4.12600917,25.9559888 4.29400954,25.5339884 4.56201014,24.8759876 C5.10801135,23.5359862 5.69997267,22.1759846 6.37597417,20.9379833 C8.08197796,17.8079798 9.83802186,15.9979778 11.0000244,15.9999761 Z"
		      id = "形状"
		      fill = "#FFFFFF"
		      fill-rule = "nonzero"></path>
	</g>
</svg>