<?xml version="1.0" encoding="UTF-8"?>
<svg width = "16px"
     height = "16px"
     viewBox = "0 0 16 16"
     version = "1.1"
     xmlns = "http://www.w3.org/2000/svg"
     xmlns:xlink = "http://www.w3.org/1999/xlink">
	<title>Plus备份</title>
	<g id = "light"
	   stroke = "none"
	   stroke-width = "1"
	   fill = "none"
	   fill-rule = "evenodd">
		<g id = "02-5-设置图片tag"
		   transform = "translate(-182.000000, -643.000000)">
			<g id = "编组"
			   transform = "translate(0.000000, 84.000000)">
				<g id = "编组-2备份-4"
				   transform = "translate(20.000000, 559.000000)">
					<g id = "Plus备份"
					   transform = "translate(162.000000, 0.000000)">
						<rect id = "bound"
						      x = "0"
						      y = "0"
						      width = "16"
						      height = "16"></rect>
						<circle id = "Oval-5"
						        fill = "#0167F9"
						        opacity = "0.3"
						        cx = "8"
						        cy = "8"
						        r = "6.66666667"></circle>
						<path d = "M8,4 C8.36818983,4 8.66666667,4.29847683 8.66666667,4.66666667 L8.666,7.333 L11.3333333,7.33333333 C11.7015232,7.33333333 12,7.63181017 12,8 C12,8.36818983 11.7015232,8.66666667 11.3333333,8.66666667 L8.666,8.666 L8.66666667,11.3333333 C8.66666667,11.7015232 8.36818983,12 8,12 C7.63181017,12 7.33333333,11.7015232 7.33333333,11.3333333 L7.333,8.666 L4.66666667,8.66666667 C4.29847683,8.66666667 4,8.36818983 4,8 C4,7.63181017 4.29847683,7.33333333 4.66666667,7.33333333 L7.333,7.333 L7.33333333,4.66666667 C7.33333333,4.29847683 7.63181017,4 8,4 Z"
						      id = "Combined-Shape"
						      fill = "#0167F9"
						      transform = "translate(8.000000, 8.000000) rotate(45.000000) translate(-8.000000, -8.000000) "></path>
					</g>
				</g>
			</g>
		</g>
	</g>
</svg>